<svg width="1920" height="500" viewBox="0 0 1920 500" fill="none" xmlns="http://www.w3.org/2000/svg">
<g clip-path="url(#clip0_5088_31789)">
<path d="M1400.77 16.8757C1512.5 -136.223 1603.51 -319.623 1641.08 -521.462C1651.5 -577.436 1647.95 -654.469 1604.96 -664.976C1642 -555.41 1587.45 -427.508 1529.75 -327.243L1527.54 -323.418C1516.81 -304.829 1505.64 -286.568 1494.55 -268.352C1500.03 -281.255 1504.93 -294.458 1509.21 -307.91C1511.52 -315.143 1513.71 -322.451 1515.61 -329.907C1525.32 -367.888 1528.37 -407.585 1524.58 -446.84C1520.01 -491.578 1505.67 -533.026 1479.69 -561.899C1469.86 -572.692 1458.65 -581.823 1446.42 -589C1425.58 -601.457 1402.48 -608.883 1379.6 -614.539C1308.88 -632.026 1236.67 -635.375 1164.52 -627.249C1233.11 -665.696 1305.12 -696.092 1379.4 -717.944C1416.85 -728.944 1454.84 -737.575 1493.18 -743.795C1459.26 -744.51 1425.3 -743.354 1391.29 -740.328C1183.76 -722.23 977.419 -636.357 797.131 -492.739C765.895 -473.793 735.17 -453.463 705.249 -431.645C594.06 -350.579 491.284 -252.368 392.627 -146.641C307.977 -55.9455 226.4 40.316 145.333 136.161C248.646 20.9238 362.693 -78.1505 483.556 -158.413C548.591 -201.757 616.354 -239.856 686.318 -272.415L442.029 -31.776C565.468 -142.012 698.742 -233.392 837.839 -303.237L721.753 -169.292C721.028 -168.474 720.317 -167.64 719.606 -166.822C833.371 -272.072 962.619 -348.391 1097.17 -389.586C1103.45 -391.506 1109.91 -393.277 1116.45 -394.751C1147.72 -401.79 1180.66 -401.671 1202.12 -374.927C1243.5 -323.358 1205.5 -231.071 1165.5 -172.894C1136.02 -130.071 1105.42 -88.6081 1073.7 -48.5041C1009.69 33.0097 940.646 109.493 867.075 180.392C857.585 189.52 848.04 198.549 838.443 207.479C876.968 187 914.769 164.264 951.845 139.271C1015.48 96.3222 1075.97 47.8884 1132.76 -5.58231C1018.62 129.687 888.57 236.634 749.969 325.037C717.821 345.526 685.249 365.067 652.251 383.66C562.449 434.366 469.897 478.553 376.446 518.721C286.926 557.178 196.574 591.944 107 625.133C297.418 595.367 485.582 528.901 663.817 429.693C793.279 357.394 915.281 269.717 1027.68 168.203C999.201 214.167 967.91 257.906 934.027 299.112C894.251 347.613 850.764 392.205 804.054 432.387C795.4 439.828 786.679 447.12 777.837 454.19C811.46 434.932 844.588 414.2 877.326 392.397C897.157 379.196 916.867 365.697 936.362 351.618C1054.17 266.548 1165.41 165.435 1267.59 50.6595C1284.47 31.6989 1301.12 12.3911 1317.53 -7.26406C1317.92 -7.74031 1318.34 -8.20168 1318.73 -8.66304C1317.8 -7.44266 1316.85 -6.25204 1315.92 -5.03165C1313.06 -1.13238 1310.11 2.71233 1307.08 6.50246C1289.84 29.1044 1272.33 51.349 1254.55 73.2366L1252.62 75.6178C1102.35 261.354 934.805 423.487 754.84 556.122C717.459 583.655 679.609 610.086 641.209 635C700.191 603.836 758.404 570.141 815.848 533.916C933.614 459.633 1046.51 376.222 1153.68 284.303L1022.58 413.991C1156.75 295.287 1289.05 169.974 1400.77 16.8757Z" fill="url(#paint0_linear_5088_31789)"/>
<path d="M545.457 -102.922C406.29 87.8129 292.928 316.298 246.132 567.756C233.146 637.49 237.575 733.46 291.123 746.55C244.979 610.049 312.933 450.704 384.798 325.791L387.555 321.026C400.925 297.868 414.83 275.118 428.652 252.423C421.817 268.498 415.72 284.947 410.385 301.706C407.51 310.717 404.786 319.821 402.413 329.11C390.316 376.428 386.525 425.885 391.249 474.789C396.931 530.525 414.797 582.162 447.153 618.133C459.403 631.579 473.368 642.955 488.6 651.896C514.555 667.416 543.335 676.668 571.83 683.713C659.923 705.499 749.871 709.671 839.735 699.548C754.306 747.446 664.601 785.315 572.081 812.539C525.427 826.242 478.109 836.995 430.356 844.745C472.606 845.635 514.912 844.195 557.273 840.425C815.769 817.879 1072.79 710.895 1297.36 531.971C1336.27 508.368 1374.54 483.04 1411.81 455.859C1550.31 354.864 1678.33 232.51 1801.22 100.792C1906.66 -12.1992 2008.27 -132.125 2109.25 -251.531C1980.56 -107.965 1838.51 15.4645 1687.96 115.458C1606.95 169.457 1522.54 216.922 1435.39 257.485L1739.68 -42.3103C1585.93 95.0255 1419.92 208.869 1246.66 295.884L1391.26 129.012C1392.16 127.992 1393.04 126.954 1393.93 125.934C1252.22 257.058 1091.23 352.138 923.633 403.461C915.811 405.853 907.756 408.059 899.617 409.895C860.659 418.665 819.63 418.516 792.906 385.198C741.364 320.952 788.694 205.977 838.515 133.499C875.238 80.1491 913.355 28.4929 952.864 -21.4699C1032.6 -123.022 1118.6 -218.307 1210.24 -306.636C1222.06 -318.008 1233.95 -329.256 1245.9 -340.381C1197.92 -314.868 1150.83 -286.543 1104.65 -255.406C1025.38 -201.899 950.032 -141.559 879.294 -74.9432C1021.47 -243.466 1183.47 -376.704 1356.11 -486.839C1396.15 -512.365 1436.73 -536.709 1477.83 -559.874C1589.69 -623.044 1704.97 -678.093 1821.37 -728.136C1932.88 -776.047 2045.43 -819.36 2157 -860.707C1919.81 -823.624 1685.43 -740.819 1463.42 -617.222C1302.16 -527.15 1150.19 -417.919 1010.19 -291.45C1045.66 -348.713 1084.64 -403.204 1126.84 -454.54C1176.39 -514.965 1230.56 -570.518 1288.74 -620.578C1299.52 -629.849 1310.38 -638.934 1321.4 -647.741C1279.51 -623.749 1238.25 -597.921 1197.47 -570.757C1172.77 -554.311 1148.22 -537.494 1123.94 -519.954C977.197 -413.972 838.632 -288.002 711.348 -145.011C690.323 -121.389 669.588 -97.3349 649.143 -72.848C648.658 -72.2547 648.14 -71.6799 647.656 -71.1051C648.809 -72.6255 649.995 -74.1088 651.149 -75.6292C654.714 -80.487 658.385 -85.2769 662.162 -89.9988C683.632 -118.157 705.443 -145.87 727.593 -173.138L729.999 -176.105C917.182 -407.501 1125.87 -609.49 1350.04 -774.731C1396.6 -809.032 1443.75 -841.962 1491.58 -873C1418.11 -834.174 1345.6 -792.197 1274.05 -747.067C1127.36 -654.523 986.739 -550.606 853.239 -436.092L1016.54 -597.661C849.412 -449.775 684.624 -293.657 545.457 -102.922Z" fill="url(#paint1_linear_5088_31789)"/>
<path d="M-954.543 -203.922C-1093.71 -13.1871 -1207.07 215.298 -1253.87 466.756C-1266.85 536.49 -1262.43 632.46 -1208.88 645.55C-1255.02 509.049 -1187.07 349.704 -1115.2 224.791L-1112.44 220.026C-1099.07 196.868 -1085.17 174.118 -1071.35 151.423C-1078.18 167.498 -1084.28 183.947 -1089.62 200.706C-1092.49 209.717 -1095.21 218.821 -1097.59 228.11C-1109.68 275.428 -1113.47 324.885 -1108.75 373.789C-1103.07 429.525 -1085.2 481.162 -1052.85 517.133C-1040.6 530.579 -1026.63 541.955 -1011.4 550.896C-985.445 566.416 -956.665 575.668 -928.17 582.713C-840.077 604.499 -750.129 608.671 -660.265 598.548C-745.694 646.446 -835.399 684.315 -927.919 711.539C-974.573 725.242 -1021.89 735.995 -1069.64 743.745C-1027.39 744.635 -985.088 743.195 -942.727 739.425C-684.231 716.879 -427.206 609.895 -202.637 430.971C-163.729 407.368 -125.457 382.04 -88.1877 354.859C50.3108 253.864 178.33 131.51 301.219 -0.208186C406.66 -113.199 508.273 -233.125 609.252 -352.531C480.564 -208.965 338.505 -85.5355 187.957 14.458C106.948 68.457 22.5421 115.922 -64.6061 156.485L239.683 -143.31C85.9256 -5.97453 -80.0821 107.869 -253.343 194.884L-108.744 28.0117C-107.842 26.9919 -106.956 25.9537 -106.07 24.9339C-247.778 156.058 -408.772 251.138 -576.367 302.461C-584.189 304.853 -592.244 307.059 -600.383 308.895C-639.341 317.665 -680.37 317.516 -707.094 284.198C-758.636 219.952 -711.306 104.977 -661.485 32.4988C-624.762 -20.8509 -586.645 -72.5071 -547.136 -122.47C-467.4 -224.022 -381.401 -319.307 -289.76 -407.636C-277.939 -419.008 -266.05 -430.256 -254.095 -441.381C-302.083 -415.868 -349.168 -387.543 -395.351 -356.406C-474.618 -302.899 -549.968 -242.559 -620.706 -175.943C-478.531 -344.466 -316.534 -477.704 -143.891 -587.839C-103.848 -613.365 -63.2746 -637.709 -22.1724 -660.874C89.686 -724.044 204.97 -779.093 321.375 -829.136C432.882 -877.047 545.426 -920.36 657 -961.707C419.813 -924.624 185.433 -841.819 -36.5788 -718.222C-197.839 -628.15 -349.807 -518.919 -489.812 -392.45C-454.339 -449.713 -415.362 -504.204 -373.157 -555.54C-323.611 -615.965 -269.443 -671.518 -211.26 -721.578C-200.481 -730.849 -189.617 -739.934 -178.604 -748.741C-220.486 -724.749 -261.75 -698.921 -302.529 -671.757C-327.23 -655.311 -351.781 -638.494 -376.065 -620.954C-522.803 -514.972 -661.368 -389.002 -788.652 -246.011C-809.677 -222.389 -830.412 -198.335 -850.857 -173.848C-851.342 -173.255 -851.86 -172.68 -852.344 -172.105C-851.191 -173.625 -850.005 -175.109 -848.851 -176.629C-845.286 -181.487 -841.615 -186.277 -837.838 -190.999C-816.368 -219.157 -794.557 -246.87 -772.407 -274.138L-770.001 -277.105C-582.818 -508.501 -374.126 -710.49 -149.958 -875.731C-103.396 -910.032 -56.2497 -942.962 -8.41786 -974C-81.8871 -935.174 -154.398 -893.197 -225.951 -848.067C-372.642 -755.523 -513.261 -651.606 -646.761 -537.092L-483.461 -698.661C-650.588 -550.775 -815.376 -394.657 -954.543 -203.922Z" fill="url(#paint2_linear_5088_31789)"/>
<path d="M-211.543 527.078C-350.71 717.813 -464.072 946.298 -510.868 1197.76C-523.854 1267.49 -519.425 1363.46 -465.877 1376.55C-512.021 1240.05 -444.067 1080.7 -372.202 955.791L-369.445 951.026C-356.075 927.868 -342.17 905.118 -328.348 882.423C-335.183 898.498 -341.28 914.947 -346.615 931.706C-349.49 940.717 -352.214 949.821 -354.587 959.11C-366.684 1006.43 -370.475 1055.88 -365.751 1104.79C-360.069 1160.52 -342.203 1212.16 -309.847 1248.13C-297.597 1261.58 -283.632 1272.96 -268.4 1281.9C-242.445 1297.42 -213.665 1306.67 -185.17 1313.71C-97.0772 1335.5 -7.12929 1339.67 82.7351 1329.55C-2.69419 1377.45 -92.3989 1415.32 -184.919 1442.54C-231.573 1456.24 -278.891 1467 -326.644 1474.75C-284.394 1475.64 -242.088 1474.2 -199.727 1470.42C58.7689 1447.88 315.794 1340.9 540.363 1161.97C579.271 1138.37 617.543 1113.04 654.812 1085.86C793.311 984.864 921.33 862.51 1044.22 730.792C1149.66 617.801 1251.27 497.875 1352.25 378.469C1223.56 522.035 1081.51 645.464 930.957 745.458C849.948 799.457 765.542 846.922 678.394 887.485L982.683 587.69C828.926 725.025 662.918 838.869 489.657 925.884L634.256 759.012C635.158 757.992 636.044 756.954 636.93 755.934C495.222 887.058 334.228 982.138 166.633 1033.46C158.811 1035.85 150.756 1038.06 142.617 1039.89C103.659 1048.66 62.6296 1048.52 35.9059 1015.2C-15.6362 950.952 31.6943 835.977 81.515 763.499C118.238 710.149 156.355 658.493 195.864 608.53C275.6 506.978 361.599 411.693 453.24 323.364C465.061 311.992 476.95 300.744 488.905 289.619C440.917 315.132 393.832 343.457 347.649 374.594C268.382 428.101 193.032 488.441 122.294 555.057C264.469 386.534 426.466 253.296 599.109 143.161C639.152 117.635 679.725 93.2906 720.828 70.1263C832.686 6.95593 947.97 -48.0933 1064.37 -98.1365C1175.88 -146.047 1288.43 -189.36 1400 -230.707C1162.81 -193.624 928.433 -110.819 706.421 12.7778C545.161 102.85 393.193 212.081 253.188 338.55C288.661 281.287 327.638 226.796 369.843 175.46C419.389 115.035 473.557 59.4819 531.74 9.42195C542.519 0.151272 553.383 -8.93404 564.396 -17.7412C522.514 6.25133 481.25 32.0795 440.471 59.2426C415.77 75.6887 391.219 92.5058 366.935 110.046C220.197 216.028 81.6321 341.998 -45.6522 484.989C-66.6768 508.611 -87.4117 532.665 -107.857 557.152C-108.342 557.745 -108.86 558.32 -109.344 558.895C-108.191 557.375 -107.005 555.891 -105.851 554.371C-102.286 549.513 -98.6149 544.723 -94.8379 540.001C-73.3676 511.843 -51.5574 484.13 -29.4074 456.862L-27.0007 453.895C160.182 222.499 368.874 20.5097 593.042 -144.731C639.604 -179.032 686.75 -211.962 734.582 -243C661.113 -204.174 588.602 -162.197 517.049 -117.067C370.358 -24.523 229.739 79.3938 96.2389 193.908L259.539 32.339C92.4118 180.225 -72.3759 336.343 -211.543 527.078Z" fill="url(#paint3_linear_5088_31789)"/>
<path d="M1493.46 227.078C1354.29 417.813 1240.93 646.298 1194.13 897.756C1181.15 967.49 1185.57 1063.46 1239.12 1076.55C1192.98 940.049 1260.93 780.704 1332.8 655.791L1335.56 651.026C1348.93 627.868 1362.83 605.118 1376.65 582.423C1369.82 598.498 1363.72 614.947 1358.38 631.706C1355.51 640.717 1352.79 649.821 1350.41 659.11C1338.32 706.428 1334.53 755.885 1339.25 804.789C1344.93 860.525 1362.8 912.162 1395.15 948.133C1407.4 961.579 1421.37 972.955 1436.6 981.896C1462.56 997.416 1491.33 1006.67 1519.83 1013.71C1607.92 1035.5 1697.87 1039.67 1787.74 1029.55C1702.31 1077.45 1612.6 1115.32 1520.08 1142.54C1473.43 1156.24 1426.11 1167 1378.36 1174.75C1420.61 1175.64 1462.91 1174.2 1505.27 1170.42C1763.77 1147.88 2020.79 1040.9 2245.36 861.971C2284.27 838.368 2322.54 813.04 2359.81 785.859C2498.31 684.864 2626.33 562.51 2749.22 430.792C2854.66 317.801 2956.27 197.875 3057.25 78.469C2928.56 222.035 2786.51 345.464 2635.96 445.458C2554.95 499.457 2470.54 546.922 2383.39 587.485L2687.68 287.69C2533.93 425.025 2367.92 538.869 2194.66 625.884L2339.26 459.012C2340.16 457.992 2341.04 456.954 2341.93 455.934C2200.22 587.058 2039.23 682.138 1871.63 733.461C1863.81 735.853 1855.76 738.059 1847.62 739.895C1808.66 748.665 1767.63 748.516 1740.91 715.198C1689.36 650.952 1736.69 535.977 1786.52 463.499C1823.24 410.149 1861.35 358.493 1900.86 308.53C1980.6 206.978 2066.6 111.693 2158.24 23.3641C2170.06 11.9921 2181.95 0.743674 2193.9 -10.3811C2145.92 15.1318 2098.83 43.4568 2052.65 74.5939C1973.38 128.101 1898.03 188.441 1827.29 255.057C1969.47 86.5345 2131.47 -46.7036 2304.11 -156.839C2344.15 -182.365 2384.73 -206.709 2425.83 -229.874C2537.69 -293.044 2652.97 -348.093 2769.37 -398.136C2880.88 -446.047 2993.43 -489.36 3105 -530.707C2867.81 -493.624 2633.43 -410.819 2411.42 -287.222C2250.16 -197.15 2098.19 -87.919 1958.19 38.5495C1993.66 -18.713 2032.64 -73.2044 2074.84 -124.54C2124.39 -184.965 2178.56 -240.518 2236.74 -290.578C2247.52 -299.849 2258.38 -308.934 2269.4 -317.741C2227.51 -293.749 2186.25 -267.921 2145.47 -240.757C2120.77 -224.311 2096.22 -207.494 2071.94 -189.954C1925.2 -83.9717 1786.63 41.9982 1659.35 184.989C1638.32 208.611 1617.59 232.665 1597.14 257.152C1596.66 257.745 1596.14 258.32 1595.66 258.895C1596.81 257.375 1598 255.891 1599.15 254.371C1602.71 249.513 1606.39 244.723 1610.16 240.001C1631.63 211.843 1653.44 184.13 1675.59 156.862L1678 153.895C1865.18 -77.5009 2073.87 -279.49 2298.04 -444.731C2344.6 -479.032 2391.75 -511.962 2439.58 -543C2366.11 -504.174 2293.6 -462.197 2222.05 -417.067C2075.36 -324.523 1934.74 -220.606 1801.24 -106.092L1964.54 -267.661C1797.41 -119.775 1632.62 36.3431 1493.46 227.078Z" fill="url(#paint4_linear_5088_31789)"/>
<path d="M1581.77 789.876C1693.5 636.777 1784.51 453.377 1822.08 251.538C1832.5 195.564 1828.95 118.531 1785.96 108.024C1823 217.59 1768.45 345.492 1710.75 445.757L1708.54 449.582C1697.81 468.171 1686.64 486.432 1675.55 504.648C1681.03 491.745 1685.93 478.542 1690.21 465.09C1692.52 457.857 1694.71 450.549 1696.61 443.093C1706.32 405.112 1709.37 365.415 1705.58 326.16C1701.01 281.422 1686.67 239.974 1660.69 211.101C1650.86 200.308 1639.65 191.177 1627.42 184C1606.58 171.543 1583.48 164.117 1560.6 158.461C1489.88 140.974 1417.67 137.625 1345.52 145.751C1414.11 107.304 1486.12 76.9078 1560.4 55.0559C1597.85 44.0563 1635.84 35.4253 1674.18 29.2046C1640.26 28.4903 1606.3 29.6462 1572.29 32.6723C1364.76 50.7697 1158.42 136.643 978.131 280.261C946.895 299.207 916.17 319.537 886.249 341.355C775.06 422.421 672.284 520.632 573.627 626.359C488.977 717.055 407.4 813.316 326.333 909.161C429.646 793.924 543.693 694.85 664.556 614.587C729.591 571.243 797.354 533.144 867.318 500.585L623.029 741.224C746.468 630.988 879.742 539.608 1018.84 469.763L902.753 603.708C902.028 604.526 901.317 605.36 900.606 606.178C1014.37 500.928 1143.62 424.609 1278.17 383.414C1284.45 381.494 1290.91 379.723 1297.45 378.249C1328.72 371.21 1361.66 371.329 1383.12 398.073C1424.5 449.642 1386.5 541.929 1346.5 600.106C1317.02 642.929 1286.42 684.392 1254.7 724.496C1190.69 806.01 1121.65 882.493 1048.07 953.392C1038.58 962.52 1029.04 971.549 1019.44 980.479C1057.97 960 1095.77 937.264 1132.85 912.271C1196.48 869.322 1256.97 820.888 1313.76 767.418C1199.62 902.687 1069.57 1009.63 930.969 1098.04C898.821 1118.53 866.249 1138.07 833.251 1156.66C743.449 1207.37 650.897 1251.55 557.446 1291.72C467.926 1330.18 377.574 1364.94 288 1398.13C478.418 1368.37 666.582 1301.9 844.817 1202.69C974.279 1130.39 1096.28 1042.72 1208.68 941.203C1180.2 987.167 1148.91 1030.91 1115.03 1072.11C1075.25 1120.61 1031.76 1165.2 985.054 1205.39C976.4 1212.83 967.679 1220.12 958.837 1227.19C992.46 1207.93 1025.59 1187.2 1058.33 1165.4C1078.16 1152.2 1097.87 1138.7 1117.36 1124.62C1235.17 1039.55 1346.41 938.435 1448.59 823.659C1465.47 804.699 1482.12 785.391 1498.53 765.736C1498.92 765.26 1499.34 764.798 1499.73 764.337C1498.8 765.557 1497.85 766.748 1496.92 767.968C1494.06 771.868 1491.11 775.712 1488.08 779.502C1470.84 802.104 1453.33 824.349 1435.55 846.237L1433.62 848.618C1283.35 1034.35 1115.81 1196.49 935.84 1329.12C898.459 1356.65 860.609 1383.09 822.209 1408C881.191 1376.84 939.404 1343.14 996.848 1306.92C1114.61 1232.63 1227.51 1149.22 1334.68 1057.3L1203.58 1186.99C1337.75 1068.29 1470.05 942.974 1581.77 789.876Z" fill="url(#paint5_linear_5088_31789)"/>
</g>
<defs>
<linearGradient id="paint0_linear_5088_31789" x1="680.306" y1="-557.764" x2="1426.39" y2="935.908" gradientUnits="userSpaceOnUse">
<stop stop-color="white" stop-opacity="0.06"/>
<stop offset="1" stop-color="#E0E0E0"/>
</linearGradient>
<linearGradient id="paint1_linear_5088_31789" x1="1442.88" y1="612.981" x2="513.29" y2="-1247.75" gradientUnits="userSpaceOnUse">
<stop stop-color="white" stop-opacity="0.06"/>
<stop offset="1" stop-color="#E0E0E0"/>
</linearGradient>
<linearGradient id="paint2_linear_5088_31789" x1="-57.1177" y1="511.981" x2="-986.71" y2="-1348.75" gradientUnits="userSpaceOnUse">
<stop stop-color="white" stop-opacity="0.06"/>
<stop offset="1" stop-color="#E0E0E0"/>
</linearGradient>
<linearGradient id="paint3_linear_5088_31789" x1="685.882" y1="1242.98" x2="-243.71" y2="-617.752" gradientUnits="userSpaceOnUse">
<stop stop-color="white" stop-opacity="0.06"/>
<stop offset="1" stop-color="#E0E0E0"/>
</linearGradient>
<linearGradient id="paint4_linear_5088_31789" x1="2390.88" y1="942.981" x2="1461.29" y2="-917.752" gradientUnits="userSpaceOnUse">
<stop stop-color="white" stop-opacity="0.06"/>
<stop offset="1" stop-color="#E0E0E0"/>
</linearGradient>
<linearGradient id="paint5_linear_5088_31789" x1="861.306" y1="215.236" x2="1607.39" y2="1708.91" gradientUnits="userSpaceOnUse">
<stop stop-color="white" stop-opacity="0.06"/>
<stop offset="1" stop-color="#E0E0E0"/>
</linearGradient>
<clipPath id="clip0_5088_31789">
<rect width="1920" height="500" fill="white"/>
</clipPath>
</defs>
</svg>
