<?xml version="1.0" encoding="utf-8"?>
<!-- Generator: Adobe Illustrator 25.3.1, SVG Export Plug-In . SVG Version: 6.00 Build 0)  -->
<svg version="1.1" id="Layer_1" xmlns="http://www.w3.org/2000/svg" xmlns:xlink="http://www.w3.org/1999/xlink" x="0px" y="0px"
	 viewBox="0 0 33 33" style="enable-background:new 0 0 33 33;" xml:space="preserve">
<style type="text/css">
	.st0{fill:#FFFFFF;}
</style>
<path d="M31.3,10c0.4-0.7,0.4-1.7-0.2-2.3l-4.9-5.6c-0.4-0.4-0.9-0.7-1.5-0.7c-0.5,0-0.9,0.2-1.3,0.5l-6,5L11.7,1
	c-0.4-0.4-0.9-0.6-1.4-0.6h0c-0.5,0-1,0.2-1.4,0.6L2.4,7.3C1.8,7.9,1.7,8.9,2.1,9.7c-0.4,0.8-0.3,1.7,0.3,2.4l3.6,3.7l-3.8,3.5
	c-0.4,0.4-0.6,0.9-0.7,1.4c0,0.4,0.1,0.7,0.3,1.1c-0.2,0.3-0.3,0.6-0.3,0.9c0,0.5,0.2,1.1,0.6,1.5l6,6c0.4,0.4,0.9,0.6,1.4,0.6
	c0.5,0,1-0.2,1.3-0.5l4.8-4.2l4.9,4.9c0.4,0.4,0.9,0.6,1.4,0.6c0.5,0,0.9-0.2,1.3-0.4l7.1-5.8c0.4-0.4,0.7-0.9,0.7-1.5
	c0-0.4-0.1-0.8-0.3-1.1c0.2-0.3,0.3-0.6,0.3-0.9c0-0.6-0.2-1.1-0.6-1.5l-4-4l4.4-3.9C31.6,11.9,31.8,10.8,31.3,10z"/>
<path class="st0" d="M24.7,16.1c-0.4-0.4-0.4-1.1,0-1.5l5.5-4.8c0.4-0.4,0.5-1,0.1-1.4l-4.9-5.6c-0.2-0.2-0.5-0.3-0.8-0.3
	c-0.2,0-0.5,0.1-0.6,0.2l-6,5c-0.2,0.2-0.4,0.2-0.6,0.2c-0.3,0-0.5-0.1-0.7-0.3L11,1.7c-0.2-0.2-0.5-0.3-0.7-0.3
	c-0.3,0-0.5,0.1-0.7,0.3L3.1,8c-0.4,0.4-0.4,1,0,1.4l4.6,4.7c0.4,0.4,0.4,1.1,0,1.5L2.8,20c-0.4,0.4-0.4,1.1,0,1.5l6,6
	c0.2,0.2,0.5,0.3,0.7,0.3c0.2,0,0.5-0.1,0.7-0.2l4.8-4.2c0.2-0.2,0.4-0.2,0.7-0.2c0.3,0,0.5,0.1,0.7,0.3l4.9,4.9
	c0.2,0.2,0.5,0.3,0.7,0.3c0.2,0,0.4-0.1,0.6-0.2l7.1-5.8c0.5-0.4,0.5-1.1,0.1-1.5L24.7,16.1z"/>
</svg>
