<svg xmlns="http://www.w3.org/2000/svg" viewBox="0 0 18.11 1394.74"><g id="Layer_2" data-name="Layer 2"><g id="Layer_1-2" data-name="Layer 1"><path d="M18.11,9.05a9,9,0,1,1-2.65-6.4A9,9,0,0,1,18.11,9.05Z"/><path d="M18,30.05a8.91,8.91,0,1,1-2.61-6.31A8.93,8.93,0,0,1,18,30.05Z"/><path d="M17.84,51.05a8.78,8.78,0,0,1-15,6.2A8.78,8.78,0,1,1,15.26,44.84,8.75,8.75,0,0,1,17.84,51.05Z"/><path d="M17.7,72a8.64,8.64,0,1,1-2.53-6.11A8.62,8.62,0,0,1,17.7,72Z"/><path d="M17.56,93a8.5,8.5,0,1,1-2.49-6A8.48,8.48,0,0,1,17.56,93Z"/><path d="M17.42,114A8.36,8.36,0,1,1,15,108.11,8.34,8.34,0,0,1,17.42,114Z"/><path d="M17.29,135a8.25,8.25,0,1,1-2.41-5.82A8.25,8.25,0,0,1,17.29,135Z"/><path d="M17.15,156a8.09,8.09,0,1,1-2.37-5.72A8.1,8.1,0,0,1,17.15,156Z"/><path d="M17,177a8,8,0,1,1-2.33-5.63A7.93,7.93,0,0,1,17,177Z"/><path d="M16.87,198a7.81,7.81,0,0,1-13.34,5.53A7.82,7.82,0,1,1,16.87,198Z"/><path d="M16.74,219a7.7,7.7,0,1,1-2.25-5.43A7.66,7.66,0,0,1,16.74,219Z"/><path d="M16.6,240a7.55,7.55,0,1,1-15.09,0,7.54,7.54,0,0,1,12.88-5.33A7.49,7.49,0,0,1,16.6,240Z"/><path d="M16.46,261a7.41,7.41,0,1,1-2.17-5.24A7.4,7.4,0,0,1,16.46,261Z"/><path d="M16.33,282a7.27,7.27,0,1,1-2.13-5.14A7.3,7.3,0,0,1,16.33,282Z"/><path d="M16.19,303a7.14,7.14,0,1,1-2.09-5.05A7.1,7.1,0,0,1,16.19,303Z"/><path d="M16.05,324a7,7,0,0,1-11.94,4.95A7,7,0,1,1,14,319,6.93,6.93,0,0,1,16.05,324Z"/><path d="M15.91,345a6.85,6.85,0,1,1-2-4.85A6.84,6.84,0,0,1,15.91,345Z"/><path d="M15.78,366a6.73,6.73,0,1,1-2-4.75A6.74,6.74,0,0,1,15.78,366Z"/><path d="M15.64,387a6.59,6.59,0,1,1-1.93-4.66A6.59,6.59,0,0,1,15.64,387Z"/><path d="M15.5,408a6.44,6.44,0,0,1-11,4.55,6.44,6.44,0,1,1,9.11-9.11A6.39,6.39,0,0,1,15.5,408Z"/><path d="M15.37,429a6.32,6.32,0,1,1-1.85-4.46A6.3,6.3,0,0,1,15.37,429Z"/><path d="M15.23,450a6.18,6.18,0,1,1-1.81-4.37A6.14,6.14,0,0,1,15.23,450Z"/><path d="M15.09,471a6,6,0,0,1-10.3,4.27A6,6,0,1,1,15.09,471Z"/><path d="M15,492a5.89,5.89,0,1,1-1.72-4.17A5.9,5.9,0,0,1,15,492Z"/><path d="M14.82,512.94A5.77,5.77,0,1,1,5,508.87a5.77,5.77,0,0,1,9.84,4.07Z"/><path d="M14.68,533.94a5.62,5.62,0,0,1-9.6,4,5.62,5.62,0,1,1,9.6-4Z"/><path d="M14.54,554.93a5.48,5.48,0,1,1-1.6-3.88A5.46,5.46,0,0,1,14.54,554.93Z"/><path d="M14.41,575.93a5.36,5.36,0,1,1-5.36-5.35,5.34,5.34,0,0,1,5.36,5.35Z"/><path d="M14.27,596.92a5.22,5.22,0,0,1-10.43,0,5.22,5.22,0,0,1,10.43,0Z"/><path d="M14.13,617.92a5.09,5.09,0,1,1-1.49-3.59A5.06,5.06,0,0,1,14.13,617.92Z"/><path d="M14,638.91a4.93,4.93,0,1,1-1.44-3.49A5,5,0,0,1,14,638.91Z"/><path d="M13.86,659.91a4.8,4.8,0,1,1-1.41-3.4A4.77,4.77,0,0,1,13.86,659.91Z"/><path d="M13.72,680.9a4.67,4.67,0,0,1-9.33,0,4.66,4.66,0,0,1,8-3.29A4.62,4.62,0,0,1,13.72,680.9Z"/><path d="M13.58,701.9a4.52,4.52,0,1,1-1.32-3.2A4.5,4.5,0,0,1,13.58,701.9Z"/><path d="M13.44,722.89a4.39,4.39,0,1,1-1.28-3.1A4.4,4.4,0,0,1,13.44,722.89Z"/><path d="M13.31,743.89a4.25,4.25,0,1,1-1.25-3A4.26,4.26,0,0,1,13.31,743.89Z"/><path d="M13.17,764.89A4.11,4.11,0,1,1,12,762,4.14,4.14,0,0,1,13.17,764.89Z"/><path d="M13,785.88a4,4,0,1,1-1.16-2.81A4,4,0,0,1,13,785.88Z"/><path d="M12.9,806.88a3.84,3.84,0,0,1-6.56,2.71,3.84,3.84,0,1,1,6.56-2.71Z"/><path d="M12.76,827.87a3.7,3.7,0,1,1-1.09-2.62A3.7,3.7,0,0,1,12.76,827.87Z"/><path d="M12.62,848.87a3.55,3.55,0,1,1-1-2.53A3.59,3.59,0,0,1,12.62,848.87Z"/><path d="M12.48,869.86a3.43,3.43,0,1,1-1-2.42A3.42,3.42,0,0,1,12.48,869.86Z"/><path d="M12.35,890.86a3.31,3.31,0,1,1-1-2.33A3.28,3.28,0,0,1,12.35,890.86Z"/><path d="M12.21,911.85a3.14,3.14,0,0,1-.92,2.23,3.15,3.15,0,0,1-4.47,0,3.16,3.16,0,1,1,5.39-2.23Z"/><path d="M12.07,932.85a3,3,0,0,1-.88,2.13,3,3,0,0,1-4.27,0,3,3,0,0,1,0-4.27,3,3,0,0,1,4.27,0A3,3,0,0,1,12.07,932.85Z"/><path d="M11.94,953.84a2.89,2.89,0,1,1-4.92-2,2.86,2.86,0,0,1,4.07,0A2.87,2.87,0,0,1,11.94,953.84Z"/><path d="M11.8,974.84a2.75,2.75,0,0,1-4.69,1.94,2.75,2.75,0,0,1,1.94-4.69,2.77,2.77,0,0,1,2.75,2.75Z"/><path d="M11.66,995.83A2.59,2.59,0,1,1,10.9,994,2.62,2.62,0,0,1,11.66,995.83Z"/><path d="M11.52,1016.83a2.46,2.46,0,1,1-.72-1.75A2.46,2.46,0,0,1,11.52,1016.83Z"/><path d="M11.39,1037.82a2.33,2.33,0,0,1-4,1.65,2.33,2.33,0,1,1,3.29-3.29A2.28,2.28,0,0,1,11.39,1037.82Z"/><path d="M11.25,1058.82a2.19,2.19,0,0,1-2.2,2.19,2.18,2.18,0,0,1-1.55-.64,2.2,2.2,0,1,1,3.75-1.55Z"/><path d="M11.11,1079.81a2,2,0,1,1-.6-1.45A2.06,2.06,0,0,1,11.11,1079.81Z"/><path d="M11,1100.81a1.92,1.92,0,0,1-.57,1.36,1.92,1.92,0,0,1-2.71,0,1.91,1.91,0,0,1,0-2.72,1.92,1.92,0,0,1,2.71,0A1.92,1.92,0,0,1,11,1100.81Z"/><path d="M10.84,1121.81a1.78,1.78,0,1,1-.52-1.27A1.8,1.8,0,0,1,10.84,1121.81Z"/><path d="M10.7,1142.8a1.6,1.6,0,0,1-.48,1.16,1.63,1.63,0,0,1-2.33,0,1.6,1.6,0,0,1-.48-1.16,1.62,1.62,0,0,1,.48-1.16,1.63,1.63,0,0,1,2.33,0A1.62,1.62,0,0,1,10.7,1142.8Z"/><path d="M10.56,1163.8a1.51,1.51,0,0,1-.44,1.06A1.51,1.51,0,0,1,8,1162.73a1.51,1.51,0,0,1,2.57,1.07Z"/><path d="M10.43,1184.79a1.37,1.37,0,0,1-.41,1,1.34,1.34,0,0,1-1,.4,1.38,1.38,0,0,1-1-.4,1.38,1.38,0,0,1,0-1.94,1.38,1.38,0,0,1,1-.4,1.34,1.34,0,0,1,1,.4A1.37,1.37,0,0,1,10.43,1184.79Z"/><path d="M10.29,1205.79a1.23,1.23,0,0,1-.36.87,1.24,1.24,0,0,1-1.75,0,1.23,1.23,0,0,1-.36-.87,1.27,1.27,0,0,1,.36-.88,1.24,1.24,0,0,1,1.75,0A1.27,1.27,0,0,1,10.29,1205.79Z"/><path d="M10.15,1226.78a1.1,1.1,0,1,1-2.19,0,1.06,1.06,0,0,1,.32-.77,1.08,1.08,0,0,1,1.55,0A1.06,1.06,0,0,1,10.15,1226.78Z"/><path d="M10,1247.78a1,1,0,0,1-1.93,0,.93.93,0,0,1,.29-.68,1,1,0,0,1,1.35,0A.93.93,0,0,1,10,1247.78Z"/><path d="M9.88,1268.77a.79.79,0,0,1-.24.58.81.81,0,0,1-1.17,0,.79.79,0,0,1-.24-.58.83.83,0,0,1,1.65,0Z"/><path d="M9.74,1289.77a.68.68,0,0,1-.2.48.69.69,0,0,1-1,0,.68.68,0,0,1-.2-.48.72.72,0,0,1,.2-.49.69.69,0,0,1,1,0A.72.72,0,0,1,9.74,1289.77Z"/><path d="M9.6,1310.76a.55.55,0,0,1-.16.39.53.53,0,0,1-.39.16.53.53,0,0,1-.38-.16.55.55,0,0,1-.16-.39.51.51,0,0,1,.16-.38.52.52,0,0,1,.77,0A.51.51,0,0,1,9.6,1310.76Z"/><path d="M9.47,1331.76a.43.43,0,0,1-.12.29.45.45,0,0,1-.3.12.45.45,0,0,1-.29-.12.43.43,0,0,1-.12-.29.41.41,0,0,1,.12-.29.4.4,0,0,1,.29-.12.41.41,0,0,1,.42.41Z"/><path d="M9.33,1352.75a.27.27,0,0,1-.28.28.27.27,0,0,1-.19-.08.28.28,0,0,1-.08-.2.27.27,0,0,1,.27-.27.28.28,0,0,1,.2.08A.27.27,0,0,1,9.33,1352.75Z"/><path d="M9.19,1373.75a.13.13,0,0,1,0,.1.15.15,0,0,1-.1,0,.15.15,0,0,1-.09,0,.15.15,0,0,1,0-.2.15.15,0,0,1,.09,0,.15.15,0,0,1,.1,0A.13.13,0,0,1,9.19,1373.75Z"/><polygon points="9.05 1394.74 9.05 1394.74 9.05 1394.74 9.05 1394.74 9.05 1394.74 9.05 1394.74 9.05 1394.74 9.05 1394.74 9.05 1394.74"/></g></g></svg>