<svg width="86.677002mm"
   height="89.802002mm"
   viewBox="0 0 86.677002 89.802002">
  <g
     inkscape:label="Camada 1"
     inkscape:groupmode="layer"
     id="layer1"
     transform="translate(0,-207.198)">
    <path
       style="color:#000000;font-style:normal;font-variant:normal;font-weight:normal;font-stretch:normal;font-size:medium;line-height:normal;font-family:sans-serif;font-variant-ligatures:normal;font-variant-position:normal;font-variant-caps:normal;font-variant-numeric:normal;font-variant-alternates:normal;font-feature-settings:normal;text-indent:0;text-align:start;text-decoration:none;text-decoration-line:none;text-decoration-style:solid;text-decoration-color:#000000;letter-spacing:normal;word-spacing:normal;text-transform:none;writing-mode:lr-tb;direction:ltr;text-orientation:mixed;dominant-baseline:auto;baseline-shift:baseline;text-anchor:start;white-space:normal;shape-padding:0;clip-rule:nonzero;display:inline;overflow:visible;visibility:visible;opacity:1;isolation:auto;mix-blend-mode:normal;color-interpolation:sRGB;color-interpolation-filters:linearRGB;solid-color:#000000;solid-opacity:1;vector-effect:none;fill:#000000;fill-opacity:1;fill-rule:evenodd;stroke:none;stroke-width:6.34499979;stroke-linecap:round;stroke-linejoin:round;stroke-miterlimit:4;stroke-dasharray:none;stroke-dashoffset:0;stroke-opacity:1;paint-order:fill markers stroke;color-rendering:auto;image-rendering:auto;shape-rendering:auto;text-rendering:auto;enable-background:accumulate"
       d="m 34.376953,214.76367 c -1.527962,0.001 -3.082619,0.2517 -4.599609,0.76758 -6.343025,2.15702 -10.154499,8.39108 -9.564453,14.80664 -2.127061,1.87568 -4.010678,3.98119 -5.634766,6.29297 -6.8275333,-0.057 -12.9421896,4.78404 -14.16992188,11.7168 -1.1811,6.6694 2.53955778,13.07834 8.55664068,15.59765 0.265851,1.25874 0.494438,2.5268 0.9003906,3.74805 a 3.1728171,3.1728171 0 0 0 0.017578,0.0488 c 0.2901846,0.82712 0.6785006,1.61561 1.0312496,2.41797 -3.2860932,5.58462 -2.4622324,12.89472 2.414063,17.53906 4.972586,4.73605 12.507772,5.12108 17.951172,1.33594 3.202374,1.13288 6.533707,1.81543 9.941406,2.00781 3.559905,5.01915 9.975341,7.46719 16.070313,5.39453 6.048162,-2.05675 9.628202,-7.83453 9.453125,-13.93164 2.473944,-2.09719 4.628859,-4.50616 6.447265,-7.17383 6.547543,-0.26644 12.283182,-5.01432 13.46875,-11.70898 1.145687,-6.46944 -2.419521,-12.54193 -8.123047,-15.21094 -0.263201,-1.24778 -0.50741,-2.5001 -0.908203,-3.71094 a 3.1728171,3.1728171 0 0 0 -0.01367,-0.043 c -0.390905,-1.12847 -0.921193,-2.20007 -1.427734,-3.28125 3.038527,-5.53648 2.32231,-12.56472 -2.447266,-17.10742 -5.054626,-4.81418 -12.758863,-5.12696 -18.21875,-1.14062 -1.87467,-0.60915 -3.77979,-1.22498 -5.490234,-1.47852 -1.458921,-0.21625 -2.622851,-0.25995 -3.837891,-0.33008 -2.4682,-3.78345 -6.493308,-6.15372 -10.941406,-6.43164 a 3.1728171,3.1728171 0 0 0 -0.875,-0.125 z m 0.0059,6.34571 c 3.015146,-0.003 5.838331,1.72254 7.160157,4.57031 a 3.1728171,3.1728171 0 0 0 2.841797,1.83789 c 1.417517,0.0156 2.804766,0.12703 4.714843,0.41015 1.741786,0.25819 3.93684,0.82652 5.990235,1.61915 a 3.1728171,3.1728171 0 0 0 3.339844,-0.66993 c 3.071159,-2.94718 7.806819,-2.98975 10.933593,-0.0117 3.003125,2.86028 3.283362,7.34643 0.837891,10.53516 a 3.1728171,3.1728171 0 0 0 -0.28711,3.41406 c 0.665121,1.25602 1.231427,2.5625 1.697266,3.9043 0.462528,1.40174 0.81563,2.83881 1.050781,4.29687 a 3.1728171,3.1728171 0 0 0 2.228516,2.53516 c 3.829904,1.13687 6.24156,4.89873 5.521484,8.96484 -0.735352,4.15239 -4.423234,6.88915 -8.519531,6.50391 a 3.1728171,3.1728171 0 0 0 -3.007812,1.51172 c -1.871997,3.08394 -4.310378,5.81325 -7.191407,8.04492 a 3.1728171,3.1728171 0 0 0 -1.183593,3.04492 c 0.648575,3.77986 -1.469161,7.52085 -5.261719,8.81055 -3.817703,1.29825 -7.805211,-0.40546 -9.578125,-3.84375 a 3.1728171,3.1728171 0 0 0 -2.78125,-1.71875 c -3.799065,-0.0462 -7.537988,-0.8129 -11.007813,-2.25586 a 3.1728171,3.1728171 0 0 0 -3.367187,0.59375 c -3.07178,2.82715 -7.725594,2.83664 -10.810547,-0.10156 -3.042426,-2.8977 -3.292473,-7.46219 -0.738281,-10.66016 a 3.1728171,3.1728171 0 0 0 0.351562,-3.41601 c -0.551166,-1.08589 -1.029036,-2.20685 -1.433594,-3.35547 -0.496033,-1.49547 -0.866705,-3.02897 -1.103515,-4.58789 a 3.1728171,3.1728171 0 0 0 -2.337891,-2.59375 c -3.9906784,-1.03783 -6.5216482,-4.88026 -5.785156,-9.03907 0.7622947,-4.30452 4.682869,-7.09421 8.970703,-6.44726 a 3.1728171,3.1728171 0 0 0 3.164063,-1.45703 c 1.787277,-2.86569 4.068289,-5.41673 6.740234,-7.53516 a 3.1728171,3.1728171 0 0 0 1.119141,-3.20508 c -0.917013,-3.94117 1.223392,-7.92747 5.169921,-9.26953 0.85937,-0.29224 1.718785,-0.42897 2.5625,-0.42968 z m 10.220704,16.9414 c -0.431722,-0.0137 -0.862967,-0.0122 -1.294922,0.004 -1.834181,0.0685 -3.652269,0.40443 -5.392578,0.99609 -9.55859,3.2504 -14.893376,13.52265 -11.697266,22.92188 3.196183,9.3994 13.68736,14.28964 23.246094,11.03906 9.558921,-3.25039 14.893799,-13.52247 11.697265,-22.92188 -2.393402,-7.0368 -9.02176,-11.80207 -16.558593,-12.03906 z m -0.201172,6.3418 a 3.1728171,3.1728171 0 0 0 0.002,0 c 5.007217,0.15745 9.224242,3.24864 10.751953,7.74023 2.053574,6.03853 -1.311652,12.68713 -7.734375,14.8711 -6.422594,2.18409 -13.141965,-1.03569 -15.195313,-7.07422 -2.053299,-6.03841 1.309929,-12.68713 7.732422,-14.8711 1.15892,-0.394 2.369006,-0.61665 3.585938,-0.66211 0.286586,-0.0107 0.571528,-0.013 0.857422,-0.004 z"
       id="borda2"
       inkscape:connector-curvature="0" />
    <path
       style="color:#000000;font-style:normal;font-variant:normal;font-weight:normal;font-stretch:normal;font-size:medium;line-height:normal;font-family:sans-serif;font-variant-ligatures:normal;font-variant-position:normal;font-variant-caps:normal;font-variant-numeric:normal;font-variant-alternates:normal;font-feature-settings:normal;text-indent:0;text-align:start;text-decoration:none;text-decoration-line:none;text-decoration-style:solid;text-decoration-color:#000000;letter-spacing:normal;word-spacing:normal;text-transform:none;writing-mode:lr-tb;direction:ltr;text-orientation:mixed;dominant-baseline:auto;baseline-shift:baseline;text-anchor:start;white-space:normal;shape-padding:0;clip-rule:nonzero;display:inline;overflow:visible;visibility:visible;opacity:1;isolation:auto;mix-blend-mode:normal;color-interpolation:sRGB;color-interpolation-filters:linearRGB;solid-color:#000000;solid-opacity:1;vector-effect:none;fill:#000000;fill-opacity:1;fill-rule:evenodd;stroke:none;stroke-width:5.94500017;stroke-linecap:round;stroke-linejoin:round;stroke-miterlimit:4;stroke-dasharray:none;stroke-dashoffset:0;stroke-opacity:1;paint-order:fill markers stroke;color-rendering:auto;image-rendering:auto;shape-rendering:auto;text-rendering:auto;enable-background:accumulate"
       d="m 34.619141,207.21289 c -1.707003,-0.0795 -3.455501,0.1527 -5.166016,0.73438 -6.233227,2.11967 -9.805652,8.24167 -9.257813,14.54296 -2.244276,1.94297 -4.216628,4.14815 -5.908203,6.57227 -6.7727411,-0.10495 -12.8534535,4.67557 -14.07031212,11.54688 -1.17088111,6.61169 2.54218922,12.95535 8.52929692,15.4121 0.2677017,1.28873 0.5064872,2.58631 0.921875,3.83594 a 2.9727973,2.9727973 0 0 0 0.015625,0.0469 c 0.3003774,0.85617 0.7006292,1.67087 1.0683592,2.5 -3.3003963,5.51708 -2.508463,12.77229 2.326172,17.37695 4.928151,4.69371 12.400466,5.05065 17.773437,1.25977 3.244273,1.15924 6.626494,1.85261 10.083985,2.03906 3.496565,5.00433 9.858667,7.44975 15.902344,5.39453 5.997761,-2.0396 9.538881,-7.7844 9.322265,-13.83203 2.516658,-2.12227 4.703517,-4.56823 6.541016,-7.28125 6.495897,-0.21963 12.197969,-4.91146 13.373047,-11.54688 1.136368,-6.41689 -2.418798,-12.43897 -8.09961,-15.04492 -0.264459,-1.27098 -0.51574,-2.54643 -0.923828,-3.7793 a 2.9727973,2.9727973 0 0 0 -0.01367,-0.0391 c -0.398961,-1.15174 -0.935054,-2.24771 -1.455078,-3.34961 3.058401,-5.47215 2.362014,-12.45485 -2.36914,-16.96094 -4.999925,-4.76208 -12.619439,-5.05539 -18.00586,-1.08789 -3.102303,-1.03536 -6.319621,-1.64602 -9.601562,-1.80273 -2.479089,-3.81898 -6.504761,-6.32825 -10.986328,-6.53711 z m -0.242188,5.92383 c 2.962815,0.12662 5.658458,1.88369 6.958985,4.68555 a 2.9727973,2.9727973 0 0 0 2.683593,1.72265 c 3.692928,0.0151 7.337395,0.70597 10.742188,2.03711 a 2.9727973,2.9727973 0 0 0 3.140625,-0.62305 c 3.146412,-3.01937 8.008724,-3.0616 11.210937,-0.0117 3.075645,2.92933 3.363739,7.53271 0.857422,10.80078 a 2.9727973,2.9727973 0 0 0 -0.267578,3.19922 c 0.670941,1.26701 1.241413,2.58409 1.710937,3.9375 0.465499,1.41103 0.81985,2.856 1.056641,4.32421 a 2.9727973,2.9727973 0 0 0 2.089844,2.37696 c 3.925304,1.16519 6.397608,5.02713 5.660156,9.1914 -0.753106,4.25264 -4.536849,7.06273 -8.734375,6.66797 a 2.9727973,2.9727973 0 0 0 -2.820312,1.41602 c -1.884715,3.10488 -4.337867,5.85292 -7.238282,8.09961 a 2.9727973,2.9727973 0 0 0 -1.109375,2.85156 c 0.664898,3.87497 -1.510355,7.7143 -5.394531,9.03516 -3.910039,1.32965 -8.002993,-0.417 -9.820312,-3.94141 a 2.9727973,2.9727973 0 0 0 -2.605469,-1.61133 c -3.824186,-0.0464 -7.588148,-0.81852 -11.082031,-2.27148 a 2.9727973,2.9727973 0 0 0 -3.154297,0.55664 c -3.14747,2.89681 -7.924548,2.90562 -11.083985,-0.10352 -3.115934,-2.96771 -3.373339,-7.65247 -0.755859,-10.92968 A 2.9727973,2.9727973 0 0 0 16.75,261.34766 c -0.556662,-1.09672 -1.039317,-2.22925 -1.447266,-3.38868 -0.498583,-1.50424 -0.871136,-3.04885 -1.109375,-4.61718 a 2.9727973,2.9727973 0 0 0 -2.189453,-2.42969 c -4.0892045,-1.06345 -6.687875,-5.00833 -5.9335935,-9.26758 0.7807103,-4.40848 4.8050335,-7.27207 9.1972655,-6.60937 a 2.9727973,2.9727973 0 0 0 2.966797,-1.36524 c 1.799506,-2.88529 4.095341,-5.45334 6.785156,-7.58594 a 2.9727973,2.9727973 0 0 0 1.046875,-3.0039 c -0.939799,-4.03912 1.25896,-8.12945 5.300782,-9.50391 1.005334,-0.34187 2.02216,-0.48166 3.009765,-0.43945 z m 10.355469,17.37109 c -2.352007,-0.14629 -4.773769,0.1548 -7.138672,0.95899 -9.459902,3.21666 -14.73435,13.37457 -11.574219,22.66797 3.160005,9.29301 13.532718,14.13004 22.992188,10.91406 9.459801,-3.21698 14.734687,-13.37468 11.574219,-22.66797 -2.370295,-6.96979 -8.797494,-11.43417 -15.853516,-11.87305 z m -0.353516,5.91407 c 4.7725,0.27274 9.010983,3.2649 10.578125,7.87304 2.089575,6.14435 -1.337982,12.90728 -7.859375,15.125 -6.521509,2.2179 -13.359813,-1.05464 -15.449218,-7.19922 -2.089352,-6.14442 1.337913,-12.90749 7.859374,-15.125 1.630315,-0.55439 3.280261,-0.76474 4.871094,-0.67382 z"
       id="borda1"
       inkscape:connector-curvature="0" />
    <path
       style="opacity:1;fill:#09aee4;fill-opacity:1;fill-rule:evenodd;stroke:none;stroke-width:7.74453735;stroke-linecap:round;stroke-linejoin:round;stroke-miterlimit:4;stroke-dasharray:none;stroke-dashoffset:0;stroke-opacity:1;paint-order:fill markers stroke"
       d="m 34.379689,217.93706 c -1.185839,0.001 -2.392998,0.19384 -3.581178,0.5979 -5.459191,1.85646 -8.516928,7.49722 -7.238318,12.99249 -2.954817,2.3427 -5.47944,5.16568 -7.460526,8.34212 -5.94376,-0.89679 -11.5136948,3.07626 -12.568225,9.03098 -1.0188499,5.75321 2.5563612,11.21651 8.111649,12.66124 0.264761,1.74293 0.677326,3.45929 1.233,5.13095 0.453124,1.29155 0.990958,2.5518 1.610754,3.7729 -3.55785,4.4546 -3.179982,10.9279 1.028878,14.93655 4.26772,4.06471 10.874578,4.07159 15.146879,0.13953 3.847473,1.60001 7.986491,2.44856 12.18737,2.49959 2.478633,4.80692 8.137456,7.18945 13.418817,5.39347 5.246611,-1.78417 8.274093,-7.06416 7.366995,-12.35067 3.185991,-2.4679 5.885161,-5.48846 7.960236,-8.90695 5.703249,0.53637 10.922571,-3.36365 11.939841,-9.10797 0.996109,-5.62481 -2.398586,-10.97325 -7.742163,-12.55944 -0.26347,-1.63365 -0.65704,-3.24276 -1.176674,-4.81263 -0.520168,-1.50163 -1.154948,-2.96138 -1.899108,-4.36666 3.41107,-4.44781 2.987993,-10.8062 -1.166338,-14.76292 -4.32534,-4.11959 -11.054297,-4.0728 -15.319478,0.0202 -2.276653,-0.8788 -4.651902,-1.49967 -6.666775,-1.79834 -2.014874,-0.29866 -3.577358,-0.42712 -5.144905,-0.44442 -1.843712,-3.97213 -5.805601,-6.41159 -10.040731,-6.40788 z m 10.123929,23.2854 a 14.762147,15.281865 71.218847 0 1 13.655498,9.88829 14.762147,15.281865 71.218847 0 1 -9.715688,18.89652 14.762147,15.281865 71.218847 0 1 -19.221048,-9.0563 14.762147,15.281865 71.218847 0 1 9.715685,-18.896 14.762147,15.281865 71.218847 0 1 4.488098,-0.82941 14.762147,15.281865 71.218847 0 1 1.077455,-0.003 z"
       id="chave2"
       inkscape:connector-curvature="0" />
    <path
       style="fill:#1450af;fill-opacity:1;stroke:none;stroke-width:22.46929169;stroke-linecap:butt;stroke-linejoin:miter;stroke-miterlimit:4;stroke-dasharray:none;stroke-opacity:1;paint-order:markers stroke fill"
       d="m 162.66406,99.228516 a 55.793945,57.75823 71.218847 0 0 -16.96289,3.134764 55.793945,57.75823 71.218847 0 0 -36.73828,71.35938 55.793945,57.75823 71.218847 0 1 38.19336,-41.97852 55.793945,57.75823 71.218847 0 1 72.64453,34.22852 55.793945,57.75823 71.218847 0 1 0.0176,0.0625 55.793945,57.75823 71.218847 0 0 -1.4707,-29.44532 55.793945,57.75823 71.218847 0 0 -55.6836,-37.361324 z"
       id="meio"
       transform="matrix(0.26458333,0,0,0.26458333,0,207.198)"
       inkscape:connector-curvature="0" />
    <path
       id="chave1"
       d="m 30.410519,210.76161 c -5.459179,1.85645 -8.516979,7.4974 -7.238369,12.99267 a 31.805065,32.606874 71.218847 0 0 -7.4603,8.34182 c -5.9437596,-0.89679 -11.513969,3.0762 -12.568509,9.03093 -1.01885,5.75321 2.55648,11.21692 8.111779,12.66165 a 31.805065,32.606874 71.218847 0 0 1.23278,5.13075 31.805065,32.606874 71.218847 0 0 1.61106,3.77291 c -3.55785,4.4546 -3.1801,10.92793 1.02876,14.93658 4.26773,4.06471 10.87481,4.07128 15.1471,0.13922 a 31.805065,32.606874 71.218847 0 0 12.186981,2.50003 c 2.47863,4.80692 8.137811,7.18908 13.419161,5.3931 5.24662,-1.78417 8.27372,-7.06421 7.36662,-12.35072 a 31.805065,32.606874 71.218847 0 0 7.96037,-8.90651 c 5.70326,0.53637 10.92292,-3.36388 11.94019,-9.10819 0.9961,-5.62482 -2.39891,-10.97344 -7.74249,-12.55963 a 31.805065,32.606874 71.218847 0 0 -1.17645,-4.81258 31.805065,32.606874 71.218847 0 0 -1.89915,-4.3665 c 3.41107,-4.44781 2.98804,-10.80647 -1.1663,-14.76318 -4.32534,-4.11959 -11.05467,-4.07246 -15.31984,0.0205 A 31.805065,32.606874 71.218847 0 0 44.03255,216.5715 c -2.35997,-5.08432 -8.190331,-7.657 -13.622031,-5.80989 z m 8.139653,23.52013 a 14.762148,15.281865 71.218847 0 1 19.22073,9.05587 14.762148,15.281865 71.218847 0 1 -9.715262,18.89641 14.762148,15.281865 71.218847 0 1 -19.221389,-9.05619 14.762148,15.281865 71.218847 0 1 9.715921,-18.89609 z"
       style="opacity:1;fill:#ffffff;fill-opacity:1;fill-rule:evenodd;stroke:none;stroke-width:7.74453735;stroke-linecap:round;stroke-linejoin:round;stroke-miterlimit:4;stroke-dasharray:none;stroke-dashoffset:0;stroke-opacity:1;paint-order:fill markers stroke"
       inkscape:connector-curvature="0" />
  </g>
</svg>
