<svg width="42" height="45" viewBox="0 0 42 45" fill="none" xmlns="http://www.w3.org/2000/svg">
<ellipse opacity="0.3" cx="21.4321" cy="25.5" rx="20.451" ry="19.5" fill="black"/>
<ellipse cx="21.432" cy="22.5" rx="20.4509" ry="19.5" fill="black"/>
<circle cx="21.4321" cy="20.5" r="20" fill="url(#paint0_linear)" stroke="black"/>
<circle cx="21.4321" cy="20.5" r="15.5" fill="#2373FF"/>
<path d="M21.8264 19.1654C24.8778 19.1654 27.9039 17.1173 27.9039 13.6064V11.7534H16.3014V13.6064C16.3014 16.1918 18.5114 19.1654 21.8264 19.1654Z" fill="black"/>
<path d="M14.2449 33.0616L24.8996 34.9146L25.5996 33.3005L26.7526 20.554L26.3886 18.3584L18.4141 21.0172L14.0879 31.5154L14.2449 33.0616Z" fill="black"/>
<path d="M17.5462 17.7422L17.0813 17.6875L16.9961 18.1477L14.6799 30.6554L14.5864 31.1602L15.0935 31.2403L23.8952 32.63L24.4144 32.712L24.4703 32.1894L25.8601 19.2185L25.9128 18.7265L25.4213 18.6687L17.5462 17.7422Z" fill="white" stroke="black"/>
<path d="M21.8711 16.6543C24.5888 16.6543 27.4668 14.913 27.4668 11.7534C27.4668 10.1898 26.7443 9.00275 25.6727 8.22236C24.6159 7.45271 23.2327 7.08423 21.8711 7.08423C20.4521 7.08423 19.1747 7.67232 18.2534 8.53665C17.3365 9.39677 16.7386 10.5641 16.7386 11.7534C16.7386 14.057 18.7965 16.6543 21.8711 16.6543Z" fill="white" stroke="black"/>
<defs>
<linearGradient id="paint0_linear" x1="27.9321" y1="2.5" x2="14.9321" y2="39" gradientUnits="userSpaceOnUse">
<stop stop-color="#1499FF"/>
<stop offset="1" stop-color="#094DF1"/>
</linearGradient>
</defs>
</svg>
