<?xml version="1.0" encoding="UTF-8" standalone="no"?>
<svg
   xmlns:dc="http://purl.org/dc/elements/1.1/"
   xmlns:cc="http://creativecommons.org/ns#"
   xmlns:rdf="http://www.w3.org/1999/02/22-rdf-syntax-ns#"
   xmlns:svg="http://www.w3.org/2000/svg"
   xmlns="http://www.w3.org/2000/svg"
   xmlns:sodipodi="http://sodipodi.sourceforge.net/DTD/sodipodi-0.dtd"
   xmlns:inkscape="http://www.inkscape.org/namespaces/inkscape"
   viewBox="0 0 28.57 20"
   preserveAspectRatio="xMidYMid meet"
   focusable="false"
   class="style-scope yt-icon"
   style="display:block"
   version="1.1"
   id="svg27"
   sodipodi:docname="icon-yt.svg"
   width="28.57"
   height="20"
   inkscape:version="0.92.4 (5da689c313, 2019-01-14)">
  <metadata
     id="metadata33">
    <rdf:RDF>
      <cc:Work
         rdf:about="">
        <dc:format>image/svg+xml</dc:format>
        <dc:type
           rdf:resource="http://purl.org/dc/dcmitype/StillImage" />
        <dc:title></dc:title>
      </cc:Work>
    </rdf:RDF>
  </metadata>
  <defs
     id="defs31" />
  <sodipodi:namedview
     pagecolor="#ffffff"
     bordercolor="#666666"
     borderopacity="1"
     objecttolerance="10"
     gridtolerance="10"
     guidetolerance="10"
     inkscape:pageopacity="0"
     inkscape:pageshadow="2"
     inkscape:window-width="1024"
     inkscape:window-height="746"
     id="namedview29"
     showgrid="false"
     inkscape:zoom="9.2444444"
     inkscape:cx="18.459536"
     inkscape:cy="4.3460445"
     inkscape:window-x="-8"
     inkscape:window-y="-8"
     inkscape:window-maximized="1"
     inkscape:current-layer="g6" />
  <g
     viewBox="0 0 90 20"
     preserveAspectRatio="xMidYMid meet"
     class="style-scope yt-icon"
     id="g25">
    <g
       class="style-scope yt-icon"
       id="g6">
      <path
         d="m 14.285156,0 c 0,0 -8.9349191,2.9047429e-4 -11.1621091,0.59765625 -1.23,0.329257 -2.19613365,1.29538065 -2.52539065,2.52539065 C 2.9047429e-4,5.3502269 0,10 0,10 c 0,0 2.9047429e-4,4.649753 0.59765625,6.876953 0.329257,1.23 1.29539065,2.196191 2.52539065,2.525391 C 5.3502369,19.999744 14.285156,20 14.285156,20 c 0,0 8.93501,-2.56e-4 11.16211,-0.597656 1.23,-0.3292 2.19619,-1.295391 2.52539,-2.525391 C 28.570056,14.649753 28.570312,10 28.570312,10 c 0,0 -0.0027,-4.6497731 -0.597656,-6.8769531 -0.3292,-1.23001 -1.29539,-2.19613365 -2.52539,-2.52539065 C 23.220166,2.9047429e-4 14.285156,0 14.285156,0 Z M 11.425781,5.7148438 18.847656,10 11.425781,14.285156 Z"
         id="path2"
         style="fill:#ffffff;stroke:none"
         inkscape:connector-curvature="0" />
    </g>
  </g>
</svg>
