<svg width="37" height="20" viewBox="0 0 37 20" fill="none" xmlns="http://www.w3.org/2000/svg">
<g clip-path="url(#clip0)">
<path d="M36.691 4.61084C36.5944 4.51232 36.4785 4.4335 36.3434 4.37438C36.2275 4.29557 36.0923 4.25616 35.9571 4.25616C35.8992 4.25616 35.8606 4.25616 35.8027 4.27586L31.4384 5.26108L25.4133 6.64039L19.2338 0.35468C19.1372 0.256158 19.0213 0.17734 18.8862 0.118227C18.7703 0.0394089 18.6351 0 18.4999 0C18.3648 0 18.2296 0.0394089 18.1137 0.118227C17.9979 0.17734 17.8627 0.256158 17.7661 0.35468L11.5866 6.62069L1.19724 4.25616C1.13931 4.23645 1.10068 4.23645 1.04275 4.23645C0.907573 4.23645 0.772396 4.27586 0.656529 4.35468C0.540663 4.41379 0.405486 4.49261 0.30893 4.59113C0.0578865 4.84729 -0.0579798 5.22167 0.0192644 5.57635L2.81937 19.133C2.91592 19.6256 3.34077 19.9803 3.84285 19.9803H18.4999H29.3721H33.1764C33.6784 19.9803 34.1033 19.6256 34.1998 19.133L36.9999 5.57635C37.0579 5.22167 36.942 4.86699 36.691 4.61084Z" fill="black"/>
<path d="M25.1043 7.42844L18.4999 0.709229L11.8955 7.42844L1.04272 4.96539L3.84283 18.522H18.4999H33.157L35.9571 4.96539L25.1043 7.42844Z" fill="#FDBD22"/>
<path d="M29.3721 18.522H33.157L35.9571 4.96533L31.5928 5.95055L29.3721 18.522Z" fill="#EE7527"/>
</g>
<defs>
<clipPath id="clip0">
<rect width="37" height="20" fill="white"/>
</clipPath>
</defs>
</svg>
