<svg xmlns="http://www.w3.org/2000/svg" xmlns:xlink="http://www.w3.org/1999/xlink" id="btnM1-" version="1.1" x="0px" y="0px" viewBox="0 0 35.23 28.32" style="enable-background:new 0 0 35.23 28.32;" xml:space="preserve">
   
   <path xmlns="http://www.w3.org/2000/svg" id="btnM1-c" fill="black" d="M35.23,16.87c0.04-0.91-0.31-1.8-0.95-2.45l-0.48-0.48l0.55-0.55c0.91-0.89,0.96-2.15,0.58-3.31        c0.37-1.06,0.39-2.22-0.39-3.13l-1.3-1.53c-0.59-0.68-1.44-1.1-2.33-1.15c-0.83-0.08-1.78,0.28-2.43,0.9l-1.56,1.49l-1.46-1.59        c-0.62-0.66-1.45-1.04-2.35-1.05c-0.02,0-0.04,0-0.05,0c-0.88,0-1.7,0.34-2.33,0.97l-1.81,1.83c-0.47,0.47-0.6,1.09-0.72,1.7V4.3v-2        c0-1.35-1.12-2.3-2.3-2.3c-0.48,0-0.97,0.15-1.4,0.5L8.7,5.2H3.8C1.7,5.2,0,6.9,0,9v2v6.3v2c0,2.1,1.7,3.8,3.8,3.8H9l5.4,4.7        c0.44,0.36,0.96,0.52,1.47,0.52c1.2,0,2.33-0.91,2.33-2.32v-2v-4.04c0.12,0.18,0.07,0.43,0.23,0.59l1.68,1.75        c1.23,1.26,3.21,1.34,4.52,0.19l1.47-1.3l1.52,1.53c0.63,0.64,1.48,0.97,2.32,0.97c0.75,0,1.49-0.25,2.1-0.76l2.02-1.7        c0.7-0.59,1.12-1.45,1.16-2.36c0.02-0.41-0.07-0.82-0.2-1.21C35.11,17.4,35.22,17.15,35.23,16.87z"/>
   
   <path xmlns="http://www.w3.org/2000/svg" id="btnM1-c" fill="white" d="M15.9,2l0.3,0.3V24l-0.49,0.29l-5.4-4.7L9.75,19.1H9H3.8c-0.99,0-1.8-0.81-1.8-1.8V9c0-0.99,0.81-1.8,1.8-1.8        h4.9h0.71l0.55-0.45l5.79-4.69C15.82,2.01,15.86,2,15.9,2z M29.96,12.92l2.98-2.95c0.47-0.46,0.5-1.22,0.08-1.73l-1.3-1.52        c-0.23-0.27-0.55-0.43-0.91-0.45c-0.27,0.05-0.68,0.11-0.95,0.35l-3.03,2.9l-2.85-3.08c-0.23-0.25-0.56-0.4-0.91-0.41        c-0.3,0.01-0.68,0.13-0.92,0.38l-1.81,1.83c-0.48,0.48-0.5,1.25-0.03,1.75l2.52,2.74l-2.9,2.61c-0.26,0.23-0.41,0.56-0.42,0.9        c-0.01,0.34,0.12,0.67,0.36,0.93l1.68,1.75c0.47,0.49,1.25,0.52,1.76,0.07l2.88-2.53l2.86,2.86c0.46,0.46,1.21,0.5,1.71,0.08        l2.02-1.7c0.27-0.22,0.44-0.56,0.45-0.92c0.02-0.36-0.12-0.69-0.37-0.95L29.96,12.92z"/>
   </svg>