<svg xmlns="http://www.w3.org/2000/svg" xmlns:xlink="http://www.w3.org/1999/xlink" id="btnM-" version="1.1" x="0px" y="0px" viewBox="0 0 28.6 28.32" style="enable-background:new 0 0 28.6 28.32;" xml:space="preserve">
   
   <path xmlns="http://www.w3.org/2000/svg" id="btnM-c" fill="black" d="M28.6,13.16c0-5.73-4.66-10.4-10.4-10.4V2.3c0-1.35-1.12-2.3-2.3-2.3c-0.48,0-0.97,0.16-1.4,0.5L8.7,5.2H3.8        C1.7,5.2,0,6.9,0,9v2v6.3v2c0,2.1,1.7,3.8,3.8,3.8H9l5.4,4.7c0.45,0.36,0.96,0.52,1.47,0.52c1.2,0,2.33-0.91,2.33-2.32v-0.44        c5.73,0,10.4-4.67,10.4-10.4c0-0.35-0.17-0.65-0.2-1C28.43,13.81,28.6,13.51,28.6,13.16z"/>
   
   <path xmlns="http://www.w3.org/2000/svg" id="btnM-c" fill="white" d="M15.71,24.29l-5.4-4.7L9.75,19.1H9H3.8c-0.99,0-1.8-0.81-1.8-1.8V9c0-0.99,0.81-1.8,1.8-1.8h4.9h0.71l0.55-0.45        l5.79-4.69C15.82,2.01,15.86,2,15.9,2l0.3,0.3V24L15.71,24.29z M18.2,10.91v4.5c1.3,0,2.3-1,2.3-2.2        C20.5,11.91,19.5,10.91,18.2,10.91z M18.2,7.91v1.5c2.1,0,3.8,1.7,3.8,3.8c0,2.1-1.7,3.8-3.8,3.8v1.5c2.9,0,5.3-2.4,5.3-5.3        C23.5,10.21,21.1,7.91,18.2,7.91z M18.2,4.81v1.5c3.8,0,6.8,3.1,6.8,6.9c0,3.7-3,6.8-6.8,6.8v1.5c4.6,0,8.4-3.7,8.4-8.3        C26.6,8.61,22.8,4.81,18.2,4.81z"/>
   </svg>