<svg width="677" height="505" viewBox="0 0 677 505" fill="none" xmlns="http://www.w3.org/2000/svg">
<g clip-path="url(#clip0_5077_31544)">
<path d="M662.687 384.571C591.677 373.622 520.667 362.629 449.614 351.68C390.111 342.483 330.608 333.373 271.104 324.176C206.132 314.147 141.204 304.03 76.2319 293.957C70.0629 292.993 63.85 292.161 57.6372 291.285C62.1874 293.081 66.8252 294.263 71.5067 295.27C119.897 305.869 168.33 316.468 216.72 327.066C300.156 345.33 383.592 363.593 467.027 381.812C562.976 402.79 658.968 423.769 754.961 444.747C763.93 446.718 772.943 448.47 781.912 450.353C781.912 434.586 781.912 418.82 781.912 403.053C781.212 402.878 780.512 402.659 779.812 402.528C740.785 396.571 701.714 390.615 662.687 384.571Z" fill="#FFDE74"/>
<path d="M550.156 739.671C478.622 684.838 407.087 630.006 335.552 575.216C261.479 518.456 187.363 461.653 113.29 404.936C89.095 386.41 64.8562 367.928 40.6174 349.446C39.3923 348.527 38.0798 347.695 36.811 346.819C37.6423 348.614 38.9549 349.884 40.3549 351.067C80.3883 385.973 120.378 420.878 160.411 455.696C257.235 539.96 354.059 624.181 450.883 708.445C461.864 718.036 472.934 727.54 483.872 737.175C485.666 738.752 488.072 740.022 487.941 743C509.817 743 531.693 743 553.569 743C552.432 741.817 551.382 740.591 550.156 739.671Z" fill="#FFDE74"/>
<path d="M644.093 630.662C574.57 595.275 505.048 559.931 435.526 524.544C384.598 498.617 333.67 472.689 282.699 446.806C236.278 423.199 189.9 399.681 143.479 376.118C138.973 373.841 134.422 371.739 129.916 369.549C130.528 370.512 131.404 371.038 132.279 371.52C149.036 380.936 165.793 390.44 182.637 399.812C344.565 489.682 506.492 579.508 668.419 669.378C706.265 690.401 744.154 711.423 782 732.445C782 721.627 782 710.853 782 700.036C780.119 699.335 778.15 698.809 776.356 697.89C732.21 675.51 688.151 653.086 644.093 630.662Z" fill="#FFDE74"/>
<path d="M152.448 266.584C195.588 266.584 238.772 266.715 281.911 266.628C394.923 266.409 507.936 266.058 620.948 265.752C665.706 265.62 710.465 265.533 755.267 265.445C764.149 265.445 773.031 265.533 781.912 265.62C781.912 257.43 781.912 249.284 781.912 241.094C568.576 249.328 355.284 257.518 141.948 265.752C145.448 266.584 148.948 266.584 152.448 266.584Z" fill="#FFDE74"/>
<path d="M735.404 185.473C699.746 189.415 664.131 193.4 628.517 197.342C593.165 201.284 557.813 205.181 522.461 209.079C484.222 213.328 445.982 217.576 407.743 221.824C369.81 226.028 331.833 230.233 293.856 234.437C255.047 238.729 216.195 243.065 177.387 247.401C170.168 248.189 162.993 249.153 155.773 250.073C156.823 250.554 157.874 250.598 158.88 250.511C176.906 249.24 194.932 248.058 212.958 246.7C242.316 244.51 271.673 242.189 301.031 239.956C328.945 237.81 356.859 235.751 384.729 233.605C417.85 231.065 451.014 228.481 484.134 225.985C512.179 223.839 540.225 221.736 568.27 219.634C598.065 217.357 627.861 215.079 657.656 212.802C682.201 210.919 706.79 209.036 731.335 207.152C748.179 205.882 765.068 204.656 781.912 203.386C781.912 195.809 781.912 188.188 781.912 180.612C780.294 180.699 778.718 180.656 777.1 180.831C763.23 182.407 749.317 183.94 735.404 185.473Z" fill="#FFDE74"/>
<path d="M618.935 717.291C495.51 636.4 372.085 555.464 248.66 474.616C209.501 448.952 170.299 423.375 131.097 397.798C129.522 396.79 127.903 395.827 126.328 394.863C132.454 400.25 138.929 404.936 145.448 409.579C193.794 443.74 242.184 477.901 290.531 512.018C376.329 572.545 462.083 633.115 547.881 693.641C568.489 708.182 589.096 722.722 609.703 737.306C611.803 738.795 614.297 740.022 614.779 743C628.779 743 642.78 743 656.781 743C655.6 741.949 654.549 740.766 653.281 739.934C641.861 732.314 630.398 724.824 618.935 717.291Z" fill="#FFDE74"/>
<path d="M111.846 475.361C88.7013 447.944 65.5126 420.572 42.3239 393.199C41.3614 392.06 40.2675 391.009 39.2612 389.914C39.5675 391.535 40.3112 392.717 41.1863 393.856C52.5619 408.834 63.8937 423.856 75.313 438.791C123.878 502.427 172.487 566.063 221.052 629.699C248.485 665.656 275.917 701.569 303.306 737.525C304.488 739.102 305.1 741.073 305.975 742.869C316.476 742.869 326.976 742.869 337.477 742.869C336.514 741.599 335.552 740.285 334.545 739.058C260.298 651.203 186.094 563.26 111.846 475.361Z" fill="#FFDE74"/>
<path d="M635.08 118.64C545.475 138.742 455.87 158.889 366.266 178.991C359.922 180.393 353.621 181.969 347.321 183.415C352.309 182.977 357.165 182.101 362.022 181.137C419.6 169.4 477.134 157.662 534.712 145.881C615.566 129.326 696.377 112.727 777.231 96.1725C778.762 95.8659 780.381 95.8221 781.956 95.6469C781.956 92.4498 781.956 89.2088 781.956 86.0117C780.512 86.2307 779.068 86.3621 777.668 86.7125C730.11 97.355 682.595 107.954 635.08 118.64Z" fill="#FFDE74"/>
<path d="M87.6512 552.924C68.4877 516.529 49.1492 480.222 29.8545 443.871C29.5045 443.214 29.0232 442.601 28.6294 441.944C31.5608 449.784 34.9735 457.317 38.605 464.762C60.3499 509.522 82.1384 554.238 103.883 598.998C126.372 645.334 148.817 691.671 171.262 738.051C172.006 739.584 172.443 741.292 173.012 742.956C177.693 742.956 182.331 742.956 187.013 742.956C186.006 740.722 185.088 738.401 183.95 736.212C151.836 675.072 119.765 613.976 87.6512 552.924Z" fill="#FFDE74"/>
<path d="M666.8 155.692C613.641 164.363 560.482 173.123 507.323 181.882C505.398 182.188 503.604 183.064 501.723 183.677C507.717 182.802 513.755 181.926 519.749 181.006C546.569 177.02 573.389 173.079 600.209 169.093C638.405 163.4 676.644 157.706 714.84 152.013C737.198 148.684 759.555 145.399 781.912 142.071C781.912 140.319 781.912 138.567 781.912 136.815C780.337 137.122 778.762 137.472 777.187 137.735C740.391 143.735 703.596 149.692 666.8 155.692Z" fill="#FFDE74"/>
<path d="M492.754 184.991C493.541 184.597 494.329 184.159 495.116 183.765C494.285 184.072 493.41 184.334 492.578 184.641C492.622 184.772 492.666 184.86 492.754 184.991Z" fill="#FFDE74"/>
<path d="M495.116 183.765C495.16 183.721 495.16 183.721 495.116 183.765V183.765Z" fill="#FFDE74"/>
</g>
<defs>
<clipPath id="clip0_5077_31544">
<rect width="677" height="505" fill="white"/>
</clipPath>
</defs>
</svg>
