<svg width="660" height="499" viewBox="0 0 660 499" fill="none" xmlns="http://www.w3.org/2000/svg">
<g clip-path="url(#clip0_5077_31562)">
<path d="M470.5 317.86C501.207 301.387 531.933 284.947 562.68 268.54C564.52 267.54 566.27 266.48 568.11 265.43C567.98 265.17 567.8 264.91 567.67 264.6C562.07 267.01 556.47 269.37 550.91 271.83L180.6 437C63.82 489.133 -52.9567 541.243 -169.73 593.33C-172.35 594.52 -175.2 595.33 -177.96 596.27V664.59C-175.72 663.59 -173.4 662.66 -171.22 661.48C-143.04 646.407 -114.893 631.327 -86.78 616.24C-0.260017 569.9 86.2533 523.563 172.76 477.23C272.04 424.15 371.287 371.027 470.5 317.86Z" fill="white"/>
<path d="M99.83 -141.48C224.303 -62.7267 348.793 16.02 473.3 94.76C505.587 115.167 537.903 135.547 570.25 155.9C571.83 156.9 573.45 157.74 575.02 158.7C573.808 156.935 572.283 155.406 570.52 154.19C553.893 141.843 537.267 129.51 520.64 117.19L214.41 -108.94C164.803 -145.6 115.177 -182.243 65.53 -218.87C51.9233 -228.903 38.3133 -238.947 24.7 -249C22.52 -250.58 20.24 -252 19.76 -255H-78.24C-76.6547 -253.568 -74.9851 -252.232 -73.24 -251C-15.56 -214.46 42.13 -177.953 99.83 -141.48Z" fill="white"/>
<path d="M-20 288.86C19.72 284.613 59.4467 280.38 99.18 276.16C136.147 272.22 173.117 268.25 210.09 264.25C246.617 260.35 283.15 256.437 319.69 252.51C359.11 248.263 398.547 244.03 438 239.81C472.08 236.183 506.147 232.577 540.2 228.99C543.96 228.6 547.68 227.99 551.4 227.46C550.405 227.046 549.323 226.882 548.25 226.98C530.917 227.72 513.583 228.45 496.25 229.17C460.843 230.743 425.427 232.353 390 234C343.713 236.14 297.407 238.327 251.08 240.56C209.56 242.487 168.053 244.387 126.56 246.26C79.2267 248.447 31.8933 250.667 -15.44 252.92C-64.48 255.233 -113.533 257.52 -162.6 259.78C-167.67 260 -172.75 259.91 -177.87 259.96V305.51C-170.04 304.76 -162.21 304.1 -154.37 303.27C-109.657 298.503 -64.8667 293.7 -20 288.86Z" fill="white"/>
<path d="M12.32 98.35L213.32 134.48C274.58 145.473 335.833 156.473 397.08 167.48L533.08 191.92C534.3 192.14 535.57 192.23 536.84 192.36C536.19 191.656 535.331 191.18 534.39 191C521.66 187.85 508.93 184.69 496.19 181.63L264.9 126.2L13.15 65.9C-48.75 51.14 -110.583 36.3634 -172.35 21.57C-174.206 21.2448 -176.079 21.0278 -177.96 20.92V64.71C-176.509 64.7087 -175.06 64.7989 -173.62 64.98C-111.627 76.06 -49.6467 87.1834 12.32 98.35Z" fill="white"/>
<path d="M-138.58 -165.35C-62.06 -129.037 14.4667 -92.7133 91 -56.38C179.373 -14.4666 267.763 27.46 356.17 69.4C404.123 92.1267 452.09 114.827 500.07 137.5C503.57 139.17 507.12 140.66 510.62 142.23C509.467 141.079 508.136 140.12 506.68 139.39C486.25 128.48 465.82 117.49 445.3 106.67C355.173 59.11 265.013 11.5767 174.82 -35.93C113.573 -68.21 52.3 -100.487 -9 -132.76C-63.6667 -161.58 -118.37 -190.4 -173.11 -219.22C-174.666 -219.901 -176.279 -220.444 -177.93 -220.84V-183.17C-175.836 -182.569 -173.776 -181.855 -171.76 -181.03C-160.67 -175.86 -149.65 -170.6 -138.58 -165.35Z" fill="white"/>
<path d="M27.24 344.31L257.34 297.53L448 258.77C451.63 258.03 455.26 257.11 458.89 256.23C455.81 256.135 452.73 256.369 449.7 256.93C413.173 262.93 376.64 268.947 340.1 274.98C283.14 284.387 226.207 293.817 169.3 303.27L7.54999 330.12C-44.51 338.747 -96.56 347.39 -148.6 356.05C-158.35 357.67 -168.15 359.11 -177.96 360.64V386.05C-164.833 383.33 -151.707 380.627 -138.58 377.94C-83.32 366.78 -28.0467 355.57 27.24 344.31Z" fill="white"/>
<path d="M-85.38 174.16C-24.08 177.58 37.2033 180.98 98.47 184.36C148.257 187.12 198.047 189.837 247.84 192.51C288.18 194.743 328.513 196.993 368.84 199.26C395.347 200.7 421.847 202.113 448.34 203.5C452.97 203.72 457.61 203.55 463.12 203.55C456.47 202.85 450.74 202.15 444.92 201.55C417.8 199.05 390.643 196.567 363.45 194.1C317.297 189.853 271.127 185.62 224.94 181.4C184.86 177.72 144.78 174.053 104.7 170.4C58.5467 166.2 12.3733 161.967 -33.82 157.7C-78.4 153.633 -122.967 149.573 -167.52 145.52C-170.98 145.22 -174.52 145.26 -177.94 145.17V168.9C-176.8 169.04 -175.62 169.21 -174.48 169.26C-144.78 170.88 -115.08 172.513 -85.38 174.16Z" fill="white"/>
<path d="M200.94 67.73C274.94 91.3433 348.983 114.893 423.07 138.38C425.39 139.12 427.75 139.74 430.07 140.44C427.697 138.97 425.155 137.792 422.5 136.93C340.333 107.81 258.167 78.7 176 49.6C103.127 23.8133 30.2633 -1.93668 -42.59 -27.65C-85.9233 -42.9367 -129.223 -58.2233 -172.49 -73.51C-174.281 -74.0003 -176.111 -74.3348 -177.96 -74.51V-52.61C-174.32 -51.61 -170.6 -50.68 -167.02 -49.54C-44.38 -10.5133 78.2733 28.5767 200.94 67.73Z" fill="white"/>
<path d="M-56.67 134.13L55.46 146.79C90.68 150.79 125.887 154.76 161.08 158.7C198.62 162.953 236.143 167.187 273.65 171.4C303.93 174.82 334.207 178.207 364.48 181.56C371.48 182.35 378.4 182.92 385.31 183.62C373.58 181.34 361.82 179.5 350 177.88C313.333 172.76 276.667 167.65 240 162.55C196.82 156.55 153.653 150.523 110.5 144.47L-17.78 126.6C-60.96 120.6 -104.13 114.57 -147.29 108.51C-157.52 107.06 -167.76 105.51 -178 104.04V120.68C-170 121.52 -162 122.26 -154.07 123.14C-121.597 126.82 -89.13 130.483 -56.67 134.13Z" fill="white"/>
<path d="M-117 90.86L7.77 110.57C14.34 111.62 20.94 112.57 27.51 113.5C11.1 110.13 -5.4 107.15 -21.89 104.31C-63.85 97.0833 -105.81 89.87 -147.77 82.67C-157.83 81 -167.89 79.43 -178 77.81V81.31C-175.24 81.71 -172.48 82.06 -169.77 82.49C-152.14 85.25 -134.6 88.1 -117 90.86Z" fill="white"/>
<path d="M-65.29 308.05C-37.5967 304.503 -9.88669 300.91 17.84 297.27C20.064 296.837 22.2558 296.252 24.4 295.52C23.2746 295.772 22.1362 295.963 20.99 296.09C14.6 296.79 8.24998 297.4 1.86998 298.09C-17.5167 300.277 -36.9133 302.497 -56.32 304.75L-136.26 313.95C-150.173 315.53 -164.073 317.09 -177.96 318.63V322.14C-175.77 321.96 -173.58 321.83 -171.44 321.57L-65.29 308.05Z" fill="white"/>
<path d="M29.9099 295.48V295.21L24.4399 295.48H29.9099Z" fill="white"/>
</g>
<defs>
<clipPath id="clip0_5077_31562">
<rect width="660" height="499" fill="white"/>
</clipPath>
</defs>
</svg>
