<?xml version="1.0" encoding="utf-8"?>
<!-- Generator: Adobe Illustrator 25.2.3, SVG Export Plug-In . SVG Version: 6.00 Build 0)  -->
<svg version="1.1" id="Layer_1" xmlns="http://www.w3.org/2000/svg" xmlns:xlink="http://www.w3.org/1999/xlink" x="0px" y="0px"
	 viewBox="0 0 1920 1080" style="enable-background:new 0 0 1920 1080;" xml:space="preserve">
<style type="text/css">
	.st0{opacity:0.13;}
</style>
<g class="st0">
	<g>
		<path d="M299.26,879.91L-1.5,1080h57.68l122.37-74.82L136.86,1080h271.89L666.5,968l-63.12,111.96l-0.01,0.04H713.6L789,856.12
			l-582.39,210.35L299.26,879.91z M1247.06,1054.78l-14.08-144.96l-359.81,161.21l-19.68,8.97h193.01l149-93l-10,93h348.95
			l182.99-69.13l-42.43,69.13h65.4l156.09-208L1247.06,1054.78z M1793.27,1069.82l-31.4,10.18h86.39l73.24-34.19v-16.64l-83.83,26.4
			L1793.27,1069.82z M1310.56,654.46L968.25,852.14l-6.7-344.38L554.59,747.55l52.94-212.44L-0.5,886v75.54
			c15.57-6.96,474.23-241.07,474.23-241.07L321.78,990.53l533.94-296.05L802.5,1056l444.37-247.54l51.52,187.48l623.11-217.82V731.4
			L1363.97,879L1310.56,654.46z M1891.5,318l-406.06,310.18l-27.53-388.92l-333.1,298.92L1054.5,248L823.89,388.36l31.08-287.76
			L122.98,640.71l198.43-459.46L-0.5,455v140.94l132.96-130.9L98.03,533.9L-0.5,728.63v101.61L726.23,306.1l-42.2,297.36L986.5,370
			l97.19,350.1l296.36-278.27l42.51,351.85L1755.5,488l-93.24,266.36l259.24-165.6v-28.58l-138,52.82L1891.5,318z M1818.5,32
			l-220,271L1534.51,0h-46.11l-204.9,137L1271.75,0h-141.28l-115.64,74.02L1012.19,0H738.13L484.41,173.27L571.5,0H433.09
			L-0.5,313.9V357l481-332L326.24,365.76L906.25,8.81l4.55,261.11l243.31-154.59l-18.37,305.43l92.02-80.24l259.29-228.98
			L1557.5,508l265-380l99,163V174.74L1818.5,32z M17.5,237L319.73,0h-56.06L153.31,75.05L207.5,0H60.58L-0.5,58.53v98.87
			l95.82-97.44L17.5,237z M1608.93,17.58l3.72,13.69l7.57,27.35l7.83,27.28l8.12,27.22l20.99,68.23l33.57-58.79l55.12-103.33
			L1755.22,0h-43.94l-28.9,35.13l-4.15-19.77l-2.97-13.87L1674.93,0h-70.62l1.01,3.86L1608.93,17.58z"/>
	</g>
</g>
</svg>