<?xml version="1.0" encoding="UTF-8" standalone="no"?>
<!-- Created with Inkscape (http://www.inkscape.org/) -->

<svg
   width="244.41432mm"
   height="237.23003mm"
   viewBox="0 0 244.41432 237.23003"
   version="1.1"
   id="ccbs"
   inkscape:version="1.1.1 (3bf5ae0d25, 2021-09-20)"
   sodipodi:docname="ccbsExtra.svg"
   xmlns:inkscape="http://www.inkscape.org/namespaces/inkscape"
   xmlns:sodipodi="http://sodipodi.sourceforge.net/DTD/sodipodi-0.dtd"
   xmlns="http://www.w3.org/2000/svg"
   xmlns:svg="http://www.w3.org/2000/svg">
  <sodipodi:namedview
     id="namedview7"
     pagecolor="#ffffff"
     bordercolor="#666666"
     borderopacity="1.0"
     inkscape:pageshadow="2"
     inkscape:pageopacity="0.0"
     inkscape:pagecheckerboard="0"
     inkscape:document-units="mm"
     showgrid="false"
     inkscape:zoom="0.5"
     inkscape:cx="317"
     inkscape:cy="403"
     inkscape:window-width="1920"
     inkscape:window-height="1001"
     inkscape:window-x="-9"
     inkscape:window-y="-9"
     inkscape:window-maximized="1"
     inkscape:current-layer="layer6"
     fit-margin-top="0"
     fit-margin-left="0"
     fit-margin-right="0"
     fit-margin-bottom="0" />
  <defs
     id="defs2" />
  <g
     inkscape:groupmode="layer"
     id="layer6"
     inkscape:label="extrashade"
     style="display:inline"
     transform="translate(191,-10.376)">
    <g
       style="clip-rule:evenodd;fill-rule:evenodd;image-rendering:optimizeQuality;shape-rendering:geometricPrecision;text-rendering:geometricPrecision"
       id="g214"
       transform="matrix(0.26458333,0,0,0.26458333,-238.76794,-35.631087)">
      <path
         fill="#000000"
         d="m 584.5,349.5 c 13.983,-2.722 26.15,0.612 36.5,10 11.98,14.148 24.147,28.148 36.5,42 0.833,0.333 1.667,0.667 2.5,1 23.223,-4.598 46.39,-9.431 69.5,-14.5 14.9,-3.15 26.734,1.35 35.5,13.5 1.651,11.3 1.651,22.633 0,34 -3.771,21.315 -6.771,42.648 -9,64 20.607,14.614 39.274,31.28 56,50 6.104,8.119 12.271,16.286 18.5,24.5 48.17,-0.43 88.003,17.403 119.5,53.5 30.443,37.373 43.443,80.373 39,129 -6.358,62.252 -37.192,107.752 -92.5,136.5 -27.746,12.088 -56.746,16.088 -87,12 -10.22,-2.13 -20.22,-4.963 -30,-8.5 -4.028,2.349 -7.694,5.183 -11,8.5 -4.088,2.71 -8.421,4.877 -13,6.5 0.317,14.034 -0.183,28.034 -1.5,42 -2.1,7.02 -6.267,12.52 -12.5,16.5 8.205,8.536 16.038,17.369 23.5,26.5 6.047,11.35 8.547,23.51 7.5,36.5 2.596,17.15 -3.738,29.48 -19,37 -106.333,0.67 -212.667,0.67 -319,0 -11.33,-4.33 -17.83,-12.5 -19.5,-24.5 -2.11,-16.23 -0.11,-31.89 6,-47 8.137,-9.475 16.304,-18.975 24.5,-28.5 -2.205,-2.54 -4.705,-4.707 -7.5,-6.5 -1.651,-3.302 -3.318,-6.636 -5,-10 -1.232,-13.973 -1.732,-27.973 -1.5,-42 -1.052,0.149 -2.052,-0.017 -3,-0.5 -6.812,-4.804 -13.645,-9.637 -20.5,-14.5 -50.74,17.623 -98.24,11.456 -142.5,-18.5 -36.964,-28.749 -59.13,-66.582 -66.5,-113.5 -6.077,-51.755 6.923,-97.755 39,-138 32.005,-35.403 72.171,-53.069 120.5,-53 19.036,-28.205 42.37,-52.372 70,-72.5 0.948,-0.483 1.948,-0.649 3,-0.5 -3.804,-28.809 -7.471,-57.643 -11,-86.5 0.149,-13.615 6.816,-22.282 20,-26 6,-0.667 12,-0.667 18,0 23.545,5.576 47.211,10.242 71,14 13.647,-14.651 26.98,-29.651 40,-45 4.545,-3.606 9.545,-6.106 15,-7.5 z"
         id="path202" />
    </g>
  </g>
  <g
     inkscape:groupmode="layer"
     id="layer4"
     inkscape:label="shade"
     transform="translate(191,-10.376)">
    <g
       style="clip-rule:evenodd;fill-rule:evenodd;image-rendering:optimizeQuality;shape-rendering:geometricPrecision;text-rendering:geometricPrecision"
       id="g198"
       transform="matrix(-0.26458333,0,0,0.26458333,100.54647,-34.557146)">
      <path
         fill="#000000"
         d="m 629.5,170.5 c 13.355,-2.014 25.689,0.486 37,7.5 16,18 32,36 48,54 28.138,-4.294 56.138,-9.627 84,-16 11.863,-2.202 22.863,-0.202 33,6 7.465,6.264 10.798,14.264 10,24 -3.988,33.243 -8.155,66.41 -12.5,99.5 33.875,24.208 62.708,53.375 86.5,87.5 69.916,0.366 123.08,30.199 159.5,89.5 28.26,52.503 34.26,107.503 18,165 -22.1,66.764 -66.93,109.598 -134.5,128.5 -34.552,6.681 -68.385,4.181 -101.5,-7.5 -8.751,6.575 -17.918,12.575 -27.5,18 -0.676,16.013 -1.509,32.013 -2.5,48 -2.631,8.263 -7.465,14.929 -14.5,20 8.646,10.48 17.479,20.814 26.5,31 7.177,13.378 10.344,27.711 9.5,43 1.711,14.704 -2.622,27.204 -13,37.5 -3.054,2.19 -6.388,3.86 -10,5 -123.667,0.67 -247.333,0.67 -371,0 -11.306,-3.98 -18.473,-11.809 -21.5,-23.5 -1.977,-13.328 -1.977,-26.661 0,-40 1.229,-6.586 3.229,-12.919 6,-19 9.738,-11.148 19.238,-22.482 28.5,-34 -7.023,-5.032 -11.856,-11.699 -14.5,-20 -0.919,-15.994 -1.752,-31.994 -2.5,-48 -9.269,-5.882 -18.435,-11.882 -27.5,-18 C 355.815,831.262 295.315,819.762 241.5,774 187.556,719.812 168.056,654.979 183,579.5 197.132,518.047 232.632,473.88 289.5,447 c 24.256,-10.321 49.589,-15.154 76,-14.5 23.27,-34.104 51.77,-63.104 85.5,-87 -3.525,-30.348 -7.525,-60.682 -12,-91 -3.481,-25.014 7.353,-38.014 32.5,-39 29.432,4.786 58.765,10.286 88,16.5 2,0.667 4,0.667 6,0 15.667,-17.667 31.333,-35.333 47,-53 5.48,-3.407 11.147,-6.24 17,-8.5 z"
         id="path186" />
    </g>
  </g>
  <g
     inkscape:groupmode="layer"
     id="layer3"
     inkscape:label="color"
     sodipodi:insensitive="true"
     transform="translate(191,-10.376)">
    <g
       style="clip-rule:evenodd;fill-rule:evenodd;image-rendering:optimizeQuality;shape-rendering:geometricPrecision;text-rendering:geometricPrecision"
       id="g183"
       transform="matrix(0.26458333,0,0,0.26458333,-239.23033,-37.086489)">
      <g
         id="g125">
        <path
           fill="#fdbd22"
           d="m 700.5,263.5 c 0.688,25.002 1.521,50.002 2.5,75 0.465,1.431 1.299,2.597 2.5,3.5 30.535,4.423 60.868,9.257 91,14.5 -0.203,1.544 -0.87,2.878 -2,4 6.843,4.663 13.843,9.163 21,13.5 6.542,5.382 13.209,10.548 20,15.5 -1.474,2.427 -1.307,4.76 0.5,7 21.334,21.655 40.001,45.322 56,71 6.996,14.322 11.996,29.322 15,45 9.434,39.47 13.767,79.47 13,120 -5.837,28.653 -16.837,54.986 -33,79 -33.029,33.708 -69.029,63.708 -108,90 -2.82,22.268 -6.987,44.268 -12.5,66 -89.515,4.235 -179.015,3.901 -268.5,-1 -4.715,-0.236 -9.215,0.431 -13.5,2 -1.64,-3.028 -2.474,-6.361 -2.5,-10 -0.333,-16.667 -0.667,-33.333 -1,-50 -18.044,-9.554 -34.544,-21.221 -49.5,-35 -0.528,-1.221 -1.195,-2.387 -2,-3.5 -26.621,-13.754 -46.121,-34.254 -58.5,-61.5 -0.708,-0.881 -1.542,-1.547 -2.5,-2 -23.335,-45.008 -32.002,-92.675 -26,-143 2.768,-17.969 7.268,-35.636 13.5,-53 6.472,-15.611 13.972,-30.611 22.5,-45 1.478,0.262 2.811,-0.071 4,-1 25.309,-43.142 59.476,-77.476 102.5,-103 -5.525,-36.68 -10.692,-73.514 -15.5,-110.5 0.044,-1.764 0.378,-3.431 1,-5 34.495,6.432 68.995,13.266 103.5,20.5 1.895,-1.189 3.895,-2.189 6,-3 17.795,-20.797 35.962,-41.297 54.5,-61.5 5.995,-2.618 11.162,-1.451 15.5,3.5 16.698,19.526 33.532,38.86 50.5,58 z m -200,315 c 41.306,-0.281 70.139,18.385 86.5,56 11.2,36.7 3.367,68.534 -23.5,95.5 -28.793,22.13 -60.126,26.464 -94,13 -27.2,-13.528 -43.366,-35.362 -48.5,-65.5 -3.948,-33.243 6.885,-60.41 32.5,-81.5 14.239,-9.91 29.905,-15.743 47,-17.5 z m 268,0 c 46.63,0.154 76.463,22.487 89.5,67 6.952,39.904 -6.215,71.07 -39.5,93.5 -26.376,13.741 -53.376,15.074 -81,4 -27.2,-13.528 -43.366,-35.362 -48.5,-65.5 -4.26,-41.993 12.24,-72.493 49.5,-91.5 9.814,-3.787 19.814,-6.287 30,-7.5 z m -130,118 c 1.322,-0.17 2.489,0.163 3.5,1 14.443,24.717 29.277,49.217 44.5,73.5 -7.507,1.153 -15.174,1.653 -23,1.5 -22.944,-0.381 -45.944,-0.381 -69,0 -0.128,-2.155 0.372,-4.155 1.5,-6 14.821,-22.976 28.988,-46.31 42.5,-70 z"
           id="path123" />
      </g>
      <g
         id="g129">
        <path
           fill="#ed7725"
           d="m 796.5,356.5 c -30.132,-5.243 -60.465,-10.077 -91,-14.5 -1.201,-0.903 -2.035,-2.069 -2.5,-3.5 -0.979,-24.998 -1.812,-49.998 -2.5,-75 2.107,-0.968 4.441,-1.302 7,-1 0,1 0,2 0,3 33.619,-6.09 67.119,-12.757 100.5,-20 1.107,0.085 2.107,0.419 3,1 -4.743,37.01 -9.576,73.677 -14.5,110 z"
           id="path127" />
      </g>
      <g
         id="g133">
        <path
           fill="#ed7725"
           d="m 835.5,389.5 c 2.027,-0.162 4.027,0.005 6,0.5 22.179,23.329 41.845,48.495 59,75.5 0.929,-1.189 1.262,-2.522 1,-4 63.775,-2.036 112.61,23.631 146.5,77 31.59,58.832 31.26,117.499 -1,176 -43.13,65.157 -102.301,86.99 -177.5,65.5 -3.323,-1.04 -6.323,-2.54 -9,-4.5 -1.048,-2.433 -1.714,-2.433 -2,0 -3.264,0.824 -6.598,1.158 -10,1 0.149,-1.052 -0.017,-2.052 -0.5,-3 -13.509,13.835 -29.009,24.835 -46.5,33 -1.322,-0.17 -2.489,0.163 -3.5,1 -0.801,2.867 -0.634,5.534 0.5,8 0.652,0.949 0.986,2.115 1,3.5 -0.773,14.15 -1.273,28.317 -1.5,42.5 -1.894,4.068 -2.727,8.402 -2.5,13 -3.381,0.04 -6.714,-0.293 -10,-1 -1.679,-0.215 -2.679,0.452 -3,2 -4.96,3.708 -10.626,5.541 -17,5.5 -1.091,2.064 -1.258,4.231 -0.5,6.5 9.144,11.445 18.644,22.612 28.5,33.5 2.31,0.497 4.643,0.663 7,0.5 0,2.333 0,4.667 0,7 -111.681,6.545 -223.348,12.211 -335,17 -0.968,-2.107 -1.302,-4.441 -1,-7 2.357,0.163 4.69,-0.003 7,-0.5 14.167,-16.167 28.333,-32.333 42.5,-48.5 1.289,-2.851 1.789,-5.851 1.5,-9 -6.766,0.74 -12.766,-0.926 -18,-5 -0.321,-1.548 -1.321,-2.215 -3,-2 -3.286,0.707 -6.619,1.04 -10,1 0,-2 0,-4 0,-6 4.285,-1.569 8.785,-2.236 13.5,-2 89.485,4.901 178.985,5.235 268.5,1 5.513,-21.732 9.68,-43.732 12.5,-66 38.971,-26.292 74.971,-56.292 108,-90 16.163,-24.014 27.163,-50.347 33,-79 0.767,-40.53 -3.566,-80.53 -13,-120 -3.004,-15.678 -8.004,-30.678 -15,-45 -15.999,-25.678 -34.666,-49.345 -56,-71 -1.807,-2.24 -1.974,-4.573 -0.5,-7 z m 107,166 c 38.628,16.916 53.794,46.249 45.5,88 -7.875,32.618 -27.709,54.118 -59.5,64.5 -4.27,1.075 -8.603,1.575 -13,1.5 0,-1 0,-2 0,-3 -1.788,0.285 -3.455,-0.048 -5,-1 23.463,-44.647 32.13,-91.98 26,-142 1.478,0.262 2.811,-0.071 4,-1 -1.833,-1.468 -2.166,-3.135 -1,-5 2.555,2.751 3.555,2.084 3,-2 z"
           id="path131" />
      </g>
      <g
         id="g137">
        <path
           fill="#ed7725"
           d="m 378.5,465.5 c -8.528,14.389 -16.028,29.389 -22.5,45 -6.232,17.364 -10.732,35.031 -13.5,53 -4.295,0.221 -4.962,-1.112 -2,-4 -1.68,-1.269 -2.847,-2.936 -3.5,-5 -30.329,12.832 -46.496,35.665 -48.5,68.5 1.269,38.211 18.936,65.544 53,82 7.324,2.73 14.824,4.563 22.5,5.5 0.49,-1.293 0.657,-2.627 0.5,-4 1.333,0 2.667,0 4,0 0.958,0.453 1.792,1.119 2.5,2 12.379,27.246 31.879,47.746 58.5,61.5 0.805,1.113 1.472,2.279 2,3.5 0,1 0,2 0,3 -3.384,0.16 -6.717,-0.173 -10,-1 -65.899,26.566 -123.066,13.899 -171.5,-38 -43.671,-55.023 -52.671,-115.356 -27,-181 31.292,-64.709 83.126,-96.376 155.5,-95 0,1.333 0,2.667 0,4 z"
           id="path135" />
      </g>
      <g
         id="g141">
        <path
           fill="#fbb122"
           d="m 860.5,775.5 c -0.667,0 -1.333,0 -2,0 0.286,-2.433 0.952,-2.433 2,0 z"
           id="path139" />
      </g>
      <g
         id="g145">
        <path
           fill="#f49324"
           d="m 801.5,806.5 c -0.672,0.767 -1.505,1.434 -2.5,2 -0.497,2.31 -0.663,4.643 -0.5,7 -1.134,-2.466 -1.301,-5.133 -0.5,-8 1.011,-0.837 2.178,-1.17 3.5,-1 z"
           id="path143" />
      </g>
      <g
         id="g149">
        <path
           fill="#f9ac22"
           d="m 494.5,873.5 c 1.679,-0.215 2.679,0.452 3,2 -1.527,0.073 -2.527,-0.594 -3,-2 z"
           id="path147" />
      </g>
      <g
         id="g153">
        <path
           fill="#f9ac22"
           d="m 785.5,873.5 c -0.473,1.406 -1.473,2.073 -3,2 0.321,-1.548 1.321,-2.215 3,-2 z"
           id="path151" />
      </g>
      <g
         id="g157">
        <path
           fill="#fdbd22"
           d="m 800.5,928.5 c 4.289,5.461 8.789,10.794 13.5,16 4.99,12.149 5.656,24.482 2,37 -1.231,0.608 -2.564,0.941 -4,1 -114.667,-1.333 -229.333,-1.333 -344,0 -4.044,-0.353 -6.044,-2.687 -6,-7 -1.115,-10.299 0.051,-20.299 3.5,-30 111.652,-4.789 223.319,-10.455 335,-17 z"
           id="path155" />
      </g>
    </g>
  </g>
  <g
     inkscape:label="main"
     inkscape:groupmode="layer"
     id="layer1"
     sodipodi:insensitive="true"
     transform="translate(191,-10.376)">
    <g
       style="clip-rule:evenodd;fill-rule:evenodd;image-rendering:optimizeQuality;shape-rendering:geometricPrecision;text-rendering:geometricPrecision"
       id="g57"
       transform="matrix(0.26458333,0,0,0.26458333,-239.20863,-37.10305)">
      <g
         id="g11">
        <path
           fill="#000000"
           d="m 633.5,195.5 c 6.262,-0.628 12.262,0.205 18,2.5 17.206,18.87 34.039,38.037 50.5,57.5 1.719,2.057 3.719,3.724 6,5 31.525,-6.372 63.025,-12.872 94.5,-19.5 4.39,-0.772 8.723,-0.606 13,0.5 1.157,3.284 1.324,6.618 0.5,10 -4.693,34.686 -9.527,69.353 -14.5,104 0.333,1 0.667,2 1,3 41.716,24.716 74.716,58.049 99,100 75.742,-4.556 129.57,27.444 161.5,96 18,47.333 18,94.667 0,142 -27.64,62.082 -75.476,94.749 -143.5,98 -23.901,0.399 -46.401,-4.934 -67.5,-16 -12.952,13.068 -27.785,23.568 -44.5,31.5 -1.293,0.49 -2.627,0.657 -4,0.5 0.366,20.028 -0.134,40.028 -1.5,60 -8.675,7.922 -18.842,13.088 -30.5,15.5 16.396,18.058 32.396,36.391 48,55 4.513,14.762 5.013,29.595 1.5,44.5 -60.263,0.666 -120.597,0.999 -181,1 -60.403,-10e-4 -120.737,-0.334 -181,-1 -3.675,-15.166 -3.008,-30.166 2,-45 15.46,-18.463 31.294,-36.629 47.5,-54.5 -11.658,-2.412 -21.825,-7.578 -30.5,-15.5 -1.315,-19.976 -1.815,-39.976 -1.5,-60 -18.375,-7.188 -34.541,-17.854 -48.5,-32 -28.567,14.4 -58.733,19.233 -90.5,14.5 -56.372,-10.601 -96.206,-42.101 -119.5,-94.5 -21.825,-56.056 -18.825,-110.723 9,-164 35.013,-55.757 85.513,-81.09 151.5,-76 24.532,-41.742 57.532,-75.076 99,-100 0.333,-1.167 0.667,-2.333 1,-3.5 -4.792,-34.839 -9.626,-69.672 -14.5,-104.5 -0.821,-3.054 -0.655,-6.054 0.5,-9 4.277,-1.106 8.61,-1.272 13,-0.5 31.475,6.628 62.975,13.128 94.5,19.5 2.951,-1.947 5.618,-4.281 8,-7 15.794,-18.796 31.961,-37.296 48.5,-55.5 1.815,-0.757 3.481,-1.59 5,-2.5 z m 5,7 c 3.016,0.341 5.682,1.507 8,3.5 17.295,20.297 34.962,40.297 53,60 2.007,1.217 4.174,2.051 6.5,2.5 34.205,-6.254 68.205,-13.254 102,-21 -4.513,38.772 -9.513,77.439 -15,116 43.167,25.833 77.667,60.333 103.5,103.5 65.169,-6.331 115,18.169 149.5,73.5 35.68,67.819 30.35,132.152 -16,193 -50.647,55.63 -110.147,67.63 -178.5,36 -1.799,0.077 -3.466,0.577 -5,1.5 -15.189,14.504 -32.022,26.671 -50.5,36.5 0.059,3.855 0.559,7.689 1.5,11.5 -0.576,15.137 -1.409,30.304 -2.5,45.5 -6.417,4.794 -13.25,8.961 -20.5,12.5 -3.895,1.266 -7.895,1.766 -12,1.5 -0.166,4.014 10e-4,8.014 0.5,12 17.14,18.96 33.806,38.294 50,58 3.476,9.515 4.142,19.181 2,29 -0.347,1.68 -1.347,2.68 -3,3 -115.193,-1.164 -230.36,-1.33 -345.5,-0.5 -2.091,-3.696 -3.091,-7.696 -3,-12 0.374,-7.416 1.874,-14.582 4.5,-21.5 16.706,-18.371 33.039,-37.037 49,-56 0.499,-3.986 0.666,-7.986 0.5,-12 -4.082,0.156 -8.082,-0.344 -12,-1.5 -7.25,-3.539 -14.083,-7.706 -20.5,-12.5 -1.609,-19.343 -1.942,-38.676 -1,-58 -19.089,-9.418 -36.256,-21.584 -51.5,-36.5 -2.402,-0.814 -4.735,-0.647 -7,0.5 -66.759,29.815 -124.926,17.815 -174.5,-36 -46.544,-60.11 -52.544,-124.11 -18,-192 34.494,-56.831 84.994,-82.164 151.5,-76 25.309,-43.142 59.476,-77.476 102.5,-103 -5.326,-38.605 -10.326,-77.272 -15,-116 33.811,7.629 67.811,14.629 102,21 2.792,-0.732 5.459,-1.732 8,-3 16.667,-19.333 33.333,-38.667 50,-58 2.326,-1.566 4.492,-3.232 6.5,-5 z m -303,359 c -4.415,49.322 3.918,96.822 25,142.5 -8.793,-1.378 -17.126,-4.378 -25,-9 -20.856,-14.895 -34.356,-34.728 -40.5,-59.5 -3.239,-23.345 3.594,-43.178 20.5,-59.5 6.289,-5.471 12.956,-10.304 20,-14.5 z m 606,0 c 26.697,12.044 41.363,32.711 44,62 -0.7,10.333 -2.866,20.333 -6.5,30 -8.205,16.876 -20.038,30.71 -35.5,41.5 -7.874,4.622 -16.207,7.622 -25,9 21.676,-45.224 29.343,-92.724 23,-142.5 z"
           id="path9" />
      </g>
      <g
         id="g15">
        <path
           fill="#fefffe"
           d="m 490.5,400.5 c 12.625,-1.566 24.291,0.934 35,7.5 3.645,3.453 6.145,7.62 7.5,12.5 2.681,13.839 0.015,26.506 -8,38 -18.891,25.193 -44.058,36.36 -75.5,33.5 -15.666,-3.332 -23.666,-12.998 -24,-29 1.918,-17.934 9.918,-32.601 24,-44 12.274,-9.474 25.941,-15.641 41,-18.5 z"
           id="path13" />
      </g>
      <g
         id="g19">
        <path
           fill="#000000"
           d="m 339.5,550.5 c 2.333,0 4.667,0 7,0 -2.036,14.12 -3.703,28.287 -5,42.5 1.359,39.142 11.192,75.975 29.5,110.5 0.498,2.982 0.665,5.982 0.5,9 -32.333,-0.413 -56.833,-14.413 -73.5,-42 -13.344,-27.115 -14.677,-54.782 -4,-83 11.313,-17.219 26.48,-29.552 45.5,-37 z m -4,11 c -7.044,4.196 -13.711,9.029 -20,14.5 -16.906,16.322 -23.739,36.155 -20.5,59.5 6.144,24.772 19.644,44.605 40.5,59.5 7.874,4.622 16.207,7.622 25,9 -21.082,-45.678 -29.415,-93.178 -25,-142.5 z"
           id="path17" />
      </g>
      <g
         id="g23">
        <path
           fill="#000000"
           d="m 932.5,550.5 c 9.569,0.614 18.236,3.781 26,9.5 27.586,19.379 38.419,45.879 32.5,79.5 -5.511,32.505 -23.344,55.339 -53.5,68.5 -9.776,2.972 -19.776,4.472 -30,4.5 -0.165,-3.018 0.002,-6.018 0.5,-9 18.308,-34.525 28.141,-71.358 29.5,-110.5 -1.297,-14.213 -2.964,-28.38 -5,-42.5 z m 9,11 c 6.343,49.776 -1.324,97.276 -23,142.5 8.793,-1.378 17.126,-4.378 25,-9 15.462,-10.79 27.295,-24.624 35.5,-41.5 3.634,-9.667 5.8,-19.667 6.5,-30 -2.637,-29.289 -17.303,-49.956 -44,-62 z"
           id="path21" />
      </g>
      <g
         id="g27">
        <path
           fill="#000000"
           d="m 497.5,576.5 c 37.072,-2.215 65.572,12.119 85.5,43 10.433,20.929 13.433,42.929 9,66 -6.587,28.256 -23.087,48.422 -49.5,60.5 -32.638,11.8 -63.304,8.133 -92,-11 -28.753,-25.814 -38.587,-57.648 -29.5,-95.5 9.071,-30.071 28.571,-49.904 58.5,-59.5 6.081,-1.497 12.081,-2.664 18,-3.5 z"
           id="path25" />
      </g>
      <g
         id="g31">
        <path
           fill="#000000"
           d="m 765.5,576.5 c 43.622,-2.292 74.122,16.375 91.5,56 11.851,37.433 4.351,70.267 -22.5,98.5 -30.19,23.414 -63.19,28.081 -99,14 -27.251,-13.59 -43.418,-35.423 -48.5,-65.5 -5.209,-39.451 8.624,-69.951 41.5,-91.5 11.74,-6.178 24.074,-10.011 37,-11.5 z"
           id="path29" />
      </g>
      <g
         id="g35">
        <path
           fill="#000000"
           d="m 635.5,694.5 c 3,0 6,0 9,0 -0.157,1.373 0.01,2.707 0.5,4 14.333,23 28.667,46 43,69 0.497,2.31 0.663,4.643 0.5,7 -32,0 -64,0 -96,0 -0.316,-3.478 0.184,-6.812 1.5,-10 13.333,-21.333 26.667,-42.667 40,-64 1.128,-1.845 1.628,-3.845 1.5,-6 z"
           id="path33" />
      </g>
    </g>
  </g>
</svg>
